<svg width="300" height="300" viewBox="0 0 300 300" fill="none" xmlns="http://www.w3.org/2000/svg">
<g clip-path="url(#clip0_16_107)">
<rect width="300" height="300" fill="white"/>
<path d="M69.3553 69.3333H230.244V156.426L222.281 168.903L230.244 180.008V230.667H69.3553V148.565L74.3326 142.826L69.3553 137.335V69.3333Z" fill="#016FD0"/>
<path d="M100.587 181.755V156.426H127.332L130.202 160.177L133.166 156.426H230.244V180.009C230.244 180.009 227.706 181.73 224.769 181.755H171.015L167.78 177.762V181.755H157.179V174.939C157.179 174.939 155.73 175.891 152.6 175.891H148.991V181.755H132.939L130.074 177.924L127.165 181.755L100.587 181.755ZM69.3553 137.335L75.3864 123.236H85.8167L89.2393 131.134V123.236H102.205L104.243 128.944L106.218 123.236H164.42V126.106C164.42 126.106 167.48 123.236 172.508 123.236L191.393 123.302L194.757 131.097V123.236H205.607L208.593 127.713V123.236H219.543V148.565H208.593L205.731 144.073V148.565H189.79L188.187 144.572H183.901L182.324 148.565H171.513C167.186 148.565 164.42 145.754 164.42 145.754V148.565H148.12L144.885 144.572V148.565H84.2715L82.6695 144.572H78.3972L76.8069 148.565H69.3553V137.335Z" fill="white"/>
<path d="M77.5211 126.358L69.3865 145.324H74.6826L76.1835 141.526H84.9093L86.4023 145.324H91.8152L83.688 126.358H77.5211ZM80.5308 130.772L83.1904 137.409H77.8634L80.5308 130.772ZM92.375 145.321V126.355L99.901 126.383L104.278 138.611L108.551 126.355H116.017V145.321H111.288V131.346L106.276 145.321H102.13L97.1034 131.346V145.321H92.375ZM119.252 145.321V126.355H134.681V130.598H124.03V133.842H134.433V137.835H124.03V141.203H134.681V145.321H119.252ZM137.419 126.358V145.324H142.147V138.586H144.138L149.807 145.324H155.586L149.364 138.337C151.918 138.121 154.551 135.923 154.551 132.511C154.551 128.52 151.428 126.358 147.941 126.358H137.419ZM142.147 130.601H147.552C148.849 130.601 149.792 131.618 149.792 132.597C149.792 133.857 148.57 134.594 147.622 134.594H142.147V130.601ZM161.31 145.321H156.482V126.355H161.31V145.321ZM172.757 145.321H171.715C166.673 145.321 163.612 141.337 163.612 135.916C163.612 130.361 166.639 126.355 173.006 126.355H178.232V130.847H172.815C170.23 130.847 168.402 132.87 168.402 135.963C168.402 139.636 170.492 141.178 173.504 141.178H174.748L172.757 145.321ZM183.046 126.358L174.911 145.324H180.208L181.708 141.526H190.434L191.927 145.324H197.34L189.213 126.358H183.046ZM186.056 130.772L188.715 137.409H183.388L186.056 130.772ZM197.892 145.321V126.355H203.904L211.579 138.271V126.355H216.308V145.321H210.491L202.621 133.093V145.321H197.892ZM103.823 178.511V159.545H119.252V163.788H108.601V167.032H119.003V171.024H108.601V174.393H119.252V178.511H103.823ZM179.427 178.511V159.545H194.856V163.788H184.205V167.032H194.558V171.024H184.205V174.393H194.856V178.511H179.427ZM119.851 178.511L127.363 169.145L119.672 159.545H125.629L130.21 165.48L134.806 159.545H140.53L132.94 169.028L140.466 178.511H134.51L130.062 172.67L125.723 178.511H119.851ZM141.028 159.548V178.514H145.88V172.525H150.857C155.069 172.525 158.261 170.285 158.261 165.928C158.261 162.318 155.757 159.548 151.472 159.548H141.028ZM145.88 163.838H151.122C152.482 163.838 153.455 164.674 153.455 166.021C153.455 167.287 152.487 168.205 151.106 168.205H145.88V163.838ZM160.314 159.545V178.511H165.043V171.773H167.033L172.703 178.511H178.481L172.26 171.524C174.813 171.308 177.447 169.11 177.447 165.698C177.447 161.707 174.323 159.545 170.836 159.545H160.314ZM165.043 163.788H170.447C171.744 163.788 172.687 164.804 172.687 165.784C172.687 167.044 171.465 167.78 170.517 167.78H165.043V163.788ZM197.046 178.511V174.393H206.509C207.909 174.393 208.515 173.635 208.515 172.802C208.515 172.005 207.911 171.199 206.509 171.199H202.233C198.516 171.199 196.446 168.928 196.446 165.519C196.446 162.478 198.341 159.545 203.865 159.545H213.073L211.082 163.813H203.118C201.596 163.813 201.127 164.613 201.127 165.378C201.127 166.165 201.706 167.032 202.869 167.032H207.349C211.492 167.032 213.29 169.389 213.29 172.475C213.29 175.793 211.287 178.511 207.123 178.511H197.046ZM214.4 178.511V174.393H223.863C225.263 174.393 225.87 173.635 225.87 172.802C225.87 172.005 225.265 171.199 223.863 171.199H219.587C215.87 171.199 213.8 168.928 213.8 165.519C213.8 162.478 215.696 159.545 221.219 159.545H230.427L228.436 163.813H220.473C218.95 163.813 218.482 164.613 218.482 165.378C218.482 166.165 219.061 167.032 220.224 167.032H224.703C228.847 167.032 230.645 169.389 230.645 172.475C230.645 175.793 228.641 178.511 224.478 178.511H214.4Z" fill="#016FD0"/>
</g>
<defs>
<clipPath id="clip0_16_107">
<rect width="300" height="300" fill="white"/>
</clipPath>
</defs>
</svg>
