<svg width="300" height="300" viewBox="0 0 300 300" fill="none" xmlns="http://www.w3.org/2000/svg">
<rect width="300" height="300" fill="#FCFC30"/>
<path d="M176.563 127.22L162.75 118L82 172.61L150 218L218 172.61L189.667 153.816L155.667 176.865L170.542 186.44L150 198.851L111.396 172.61L176.563 127.22Z" fill="#465EFF"/>
<path d="M110 199.45L95.9998 190L82 199.45V218L110 199.45Z" fill="#465EFF"/>
<path d="M218 127.39L150 82L82 127.39L110.333 146.184L144.333 123.135L129.458 113.56L150 101.149L188.604 127.39L123.437 172.78L137.25 182L218 127.39Z" fill="#465EFF"/>
<path d="M218 100.55V82L190 100.55L204 110L218 100.55Z" fill="#465EFF"/>
</svg>
