<svg width="300" height="300" viewBox="0 0 300 300" fill="none" xmlns="http://www.w3.org/2000/svg">
<rect width="300" height="300" fill="#FA6300"/>
<path d="M147 133.153C147 128.781 150.914 125.451 155.034 126.075C177.489 129.406 195 149.181 195 172.911C194.794 210.171 165.335 218.081 152.768 219.954C149.678 220.371 147 217.873 147 214.751C147 214.751 147 154.593 147 133.153Z" fill="#462A71"/>
<path d="M109.427 174H130.718C139.694 174 147 166.676 147 157.678V84.2311C147 81.3018 144.704 79 141.782 79H131.762C116.524 79 104 91.5549 104 106.83V168.768C104 171.698 106.505 174 109.427 174Z" fill="white"/>
</svg>
