<svg width="300" height="300" viewBox="0 0 300 300" fill="none" xmlns="http://www.w3.org/2000/svg">
<rect width="300" height="300" fill="white"/>
<g clip-path="url(#clip0_16_110)">
<path d="M74.2099 144.319C72.1838 144.318 70.1895 144.816 68.4069 145.768C66.6244 146.719 65.1098 148.094 64 149.769V166.463H80.9131C83.1027 165.035 84.7685 162.947 85.664 160.51C86.5594 158.073 86.6369 155.415 85.8849 152.931C85.133 150.447 83.5916 148.269 81.4888 146.717C79.3861 145.166 76.8339 144.326 74.2099 144.319ZM64 132V145.936L77.9563 132.148L98.7403 152.684L84.7817 166.463H98.876V132H64Z" fill="#008752"/>
<path d="M131.512 143.03C131.325 140.372 130.182 138.371 128.119 137.079C126.431 136.026 124.105 135.469 121.388 135.469H112.007L107.631 166.477H116.762C122.569 166.477 126.651 165.268 128.895 162.887C130.365 161.322 131.021 159.263 130.845 156.762C130.619 153.44 128.967 151.149 126.282 150.322C129.555 149.329 131.748 146.363 131.512 143.03ZM123.119 159.467C121.778 160.891 119.228 161.087 116.671 161.087H114.909L116.056 152.877H117.789C120.916 152.877 123.836 153.286 124.047 156.252C124.146 157.656 123.841 158.707 123.119 159.473V159.467ZM123.967 146.24C122.789 147.491 120.538 147.755 118.859 147.755H116.789L117.807 140.852H119.717C122.284 140.852 124.603 141.062 124.782 143.618C124.859 144.708 124.585 145.589 123.967 146.246V146.24ZM163.013 135.476H156.586L153.303 157.81L145.369 135.476H137.098L132.546 166.477H139.064L142.2 143.957L150.011 166.477H158.416L163.013 135.476ZM186.016 138.069C183.544 136.348 180.297 135.476 176.367 135.476H166.866L162.441 166.477H173.159C179.455 166.477 184.245 164.787 187.374 161.458C191.321 157.267 191.559 151.692 191.351 148.743C191.007 143.884 189.213 140.293 186.016 138.069ZM181.564 157.933C179.589 160.03 176.551 161.094 172.537 161.094H170.024L172.877 140.859H174.743C180.399 140.859 183.944 143.488 184.256 147.894C184.568 152.3 183.663 155.704 181.564 157.933ZM202.509 140.859H214.549L215.209 135.476H196.486L192.07 166.477H211.019L211.825 161.094H199.654L200.785 153.145H211.59L212.298 147.762H201.534L202.509 140.859ZM235.751 136.323C233.405 135.414 230.65 134.953 227.566 134.953C223.677 134.953 220.46 136.095 218.517 138.172C216.983 139.802 216.295 141.914 216.481 144.451C216.804 149.063 220.202 150.871 223.2 152.465C225.618 153.751 227.706 154.864 227.871 157.173C227.953 158.342 227.645 159.317 226.921 160.079C225.998 161.06 224.433 161.622 222.623 161.622C219.947 161.622 217.315 160.555 215.058 159.556L214.732 159.411L213.375 165.196L213.637 165.288C216.877 166.426 219.904 167.004 222.634 167.004C227.127 167.004 230.6 165.84 232.672 163.64C234.33 161.879 235.066 159.493 234.858 156.547C234.507 151.58 230.785 149.494 227.786 147.818C225.523 146.555 223.58 145.462 223.444 143.519C223.41 143.183 223.448 142.843 223.557 142.523C223.666 142.203 223.843 141.909 224.075 141.662C224.994 140.687 226.74 140.34 228.068 140.34C230.28 140.378 232.456 140.903 234.437 141.876L234.776 142.042L236.009 136.424L235.751 136.323Z" fill="#00539B"/>
</g>
<defs>
<clipPath id="clip0_16_110">
<rect width="172" height="35" fill="white" transform="translate(64 132)"/>
</clipPath>
</defs>
</svg>
