<svg width="300" height="300" viewBox="0 0 300 300" fill="none" xmlns="http://www.w3.org/2000/svg">
<rect width="300" height="300" fill="#E5173F"/>
<path d="M147.598 178.011L139.838 182.479C139.42 182.697 139.072 183.029 138.835 183.437C138.598 183.845 138.482 184.312 138.5 184.784V214.029C138.5 214.38 138.64 214.717 138.888 214.966C139.137 215.214 139.474 215.354 139.825 215.354H147.671C147.748 215.354 147.822 215.324 147.876 215.269C147.93 215.215 147.961 215.141 147.961 215.065V178.22C147.961 178.177 147.949 178.136 147.928 178.099C147.907 178.062 147.876 178.032 147.839 178.011C147.803 177.99 147.761 177.979 147.719 177.979C147.676 177.979 147.635 177.99 147.598 178.011Z" fill="white"/>
<path d="M162.338 169.532L152.473 175.209C152.326 175.293 152.204 175.415 152.119 175.562C152.034 175.709 151.989 175.875 151.989 176.045V215.05C151.989 215.127 152.019 215.201 152.074 215.255C152.128 215.309 152.202 215.34 152.278 215.34L163.129 215.355C163.399 215.355 163.667 215.303 163.917 215.2C164.167 215.097 164.395 214.945 164.586 214.754C164.778 214.563 164.929 214.337 165.033 214.087C165.137 213.837 165.19 213.569 165.19 213.299V171.01C165.192 169.387 163.628 168.797 162.338 169.532Z" fill="white"/>
<path d="M146.742 112.896C138.274 112.928 129.824 113.661 121.477 115.089C125.98 109.345 131.734 104.704 138.301 101.519C144.868 98.3338 152.074 96.6882 159.373 96.7073C170.732 96.7073 182.089 100.99 189.733 107.36C191.114 108.51 192.175 108.617 193.236 107.569C194.297 106.522 194.192 105.481 193.024 104.122C183.046 92.5286 168.397 84.6956 151.094 85.0091C128.483 85.4271 109.271 99.7341 101.946 119.579C95.6139 121.486 89.4955 124.041 83.6875 127.204C82.2004 128.039 81.6704 129.082 82.2004 130.337C82.7303 131.487 83.792 131.902 85.2791 131.487C89.9489 130.128 94.7272 128.98 99.7163 127.935C99.161 130.615 98.8765 133.345 98.8671 136.082C98.4416 154.357 108.209 171.697 123.283 181.202C124.768 182.142 126.042 182.142 126.891 180.993C127.74 179.843 127.633 178.8 126.361 177.65C116.807 169.084 111.5 156.345 111.5 143.706C111.471 137.491 112.735 131.338 115.212 125.638C120.201 125.22 125.616 124.907 131.56 124.907C170.2 124.907 202.788 137.648 202.788 154.359C202.788 162.819 192.068 171.279 179.328 176.917C176.249 178.274 175.931 179.215 176.358 180.572C176.784 181.828 178.162 182.242 179.756 181.722C202.048 174.412 218.926 162.4 218.926 147.882C218.925 128.144 187.082 112.896 146.742 112.896Z" fill="white"/>
</svg>
