<svg width="300" height="300" viewBox="0 0 300 300" fill="none" xmlns="http://www.w3.org/2000/svg">
<rect width="300" height="300" fill="#001E62"/>
<path fill-rule="evenodd" clip-rule="evenodd" d="M218 153.815V170.603C218 181.737 212.121 186.092 200.679 186.092H191.988C180.651 201.887 162.472 211.4 142.768 211.4C109.256 211.4 82 183.949 82 150.2C82 116.451 109.256 89 142.768 89C166.686 89 188.405 103.174 198.208 125.136H195.528C185.908 104.629 165.354 91.448 142.768 91.448C110.597 91.448 84.4269 117.801 84.4269 150.2C84.4269 182.599 110.597 208.952 142.768 208.952C162.927 208.952 181.422 198.576 192.076 181.588L192.084 181.597C193.364 179.48 194.327 179.106 196.447 179.062H200.162C206.374 179.062 209.02 177.05 209.02 170.934V169.627C206.497 171.648 202.948 172.293 199.391 172.293C188.273 172.293 183.56 167.022 183.56 156.159V154.399C183.56 142.943 188.983 137.934 200.811 137.934C212.384 137.934 218 142.751 218 153.815ZM117.386 125.633L126.437 124.195V140.661C129.021 138.648 132.832 137.934 136.319 137.934C147.306 137.934 152.344 143.396 152.344 154.591V157.649C152.344 169.566 146.92 174.384 134.637 174.384C122.818 174.384 117.386 169.436 117.386 157.588V125.633ZM134.961 145.095C128.504 145.095 126.305 147.308 126.305 153.885V157.588C126.305 164.818 128.504 167.292 134.839 167.292C141.164 167.292 143.363 164.818 143.363 157.657V154.922C143.363 147.569 141.164 145.095 134.961 145.095ZM167.79 146.332V159.609C167.79 165.08 169.41 166.308 174.387 166.308H180.003L178.522 173.539H173.738C162.813 173.539 158.809 170.481 158.809 160.192V130.45L167.79 129.083V139.04H180.59L179.1 146.332H167.79ZM209.081 154.73C209.081 147.569 207.723 145.095 200.811 145.095C193.767 145.095 192.54 147.63 192.54 154.66V155.767C192.54 162.867 193.898 165.271 200.811 165.271C206.952 165.271 209.081 163.381 209.081 157.265V154.73Z" fill="white"/>
</svg>
