<svg width="300" height="300" viewBox="0 0 300 300" fill="none" xmlns="http://www.w3.org/2000/svg">
<rect width="300" height="300" fill="#121212"/>
<path fill-rule="evenodd" clip-rule="evenodd" d="M127.915 162.374C130.289 160.321 131.84 157.625 132.569 154.284H156.025C154.948 163.83 151.054 171.562 144.344 177.481C137.633 183.399 129.37 186.359 119.558 186.359C112.404 186.359 105.962 184.808 100.233 181.706C94.5041 178.602 90.0319 174.291 86.8192 168.77C83.6061 163.249 82 157.052 82 150.179C82 143.306 83.6061 137.11 86.8192 131.588C90.0319 126.068 94.5041 121.756 100.233 118.653C105.962 115.551 112.404 114 119.558 114C129.212 114 137.364 116.856 144.012 122.568C150.659 128.28 154.584 135.764 155.786 145.024H132.663C131.682 141.97 130.004 139.512 127.63 137.65C125.257 135.788 122.598 134.857 119.652 134.857C115.601 134.857 112.333 136.266 109.848 139.082C107.362 141.898 106.12 145.597 106.12 150.179C106.12 154.73 107.371 158.413 109.872 161.228C112.372 164.045 115.632 165.453 119.652 165.453C122.787 165.453 125.541 164.426 127.915 162.374ZM211.164 143.562C215.72 147.874 218 153.449 218 160.287C218 168.102 215.378 174.401 210.134 179.184C204.889 183.967 197.977 186.359 189.398 186.359C180.921 186.359 174.026 183.958 168.715 179.159C163.403 174.358 160.748 168.135 160.748 160.488C160.748 156.312 161.478 152.11 162.934 147.882C164.392 143.655 166.645 139.031 169.695 134.012L180.479 116.317L203.259 116.312L190.504 137.195C191.777 137.128 192.783 137.094 193.521 137.094C200.725 137.094 206.606 139.25 211.164 143.562ZM195.783 166.703C197.424 165.053 198.245 162.914 198.245 160.287C198.245 157.659 197.424 155.503 195.783 153.819C194.141 152.134 192.013 151.292 189.398 151.292C186.785 151.292 184.656 152.134 183.016 153.819C181.373 155.503 180.552 157.659 180.552 160.287C180.552 162.914 181.373 165.053 183.016 166.703C184.656 168.354 186.785 169.179 189.398 169.179C192.013 169.179 194.141 168.354 195.783 166.703Z" fill="white"/>
</svg>
