<svg width="300" height="300" viewBox="0 0 300 300" fill="none" xmlns="http://www.w3.org/2000/svg">
<rect width="300" height="300" fill="white"/>
<g clip-path="url(#clip0_16_104)">
<path d="M163.707 216C199.82 216.173 232.782 186.577 232.782 150.574C232.782 111.201 199.82 83.9869 163.707 84H132.627C96.081 83.9869 66 111.21 66 150.574C66 186.585 96.081 216.173 132.627 216H163.707Z" fill="#0079BE"/>
<path d="M132.774 89.4555C99.3793 89.466 72.3185 116.508 72.3106 149.882C72.3185 183.251 99.379 210.29 132.774 210.301C166.177 210.29 193.243 183.251 193.248 149.882C193.243 116.508 166.177 89.466 132.774 89.4555ZM94.4479 149.882C94.4794 133.574 104.675 119.666 119.052 114.14V185.616C104.675 180.093 94.4791 166.194 94.4479 149.882ZM146.491 185.632V114.138C160.873 119.651 171.084 133.566 171.111 149.882C171.084 166.204 160.873 180.109 146.491 185.632Z" fill="white"/>
</g>
<defs>
<clipPath id="clip0_16_104">
<rect width="167" height="132" fill="white" transform="translate(66 84)"/>
</clipPath>
</defs>
</svg>
