<svg width="300" height="300" viewBox="0 0 300 300" fill="none" xmlns="http://www.w3.org/2000/svg">
<rect width="300" height="300" fill="white"/>
<path d="M69.1971 144.992H81.0546C83.1742 133.698 92.9921 124.623 105.509 124.623C118.027 124.623 129.724 134.757 129.724 150.05C129.724 165.342 129.564 152.988 129.404 154.148H91.1125C92.9121 161.104 98.6308 165.182 105.509 165.182C112.388 165.182 115.807 162.883 119.326 158.885L126.365 165.342C121.706 170.659 114.747 174.337 105.509 174.337C96.2714 174.337 83.1742 165.422 81.0546 154.128H69.1971V144.972V144.992ZM119.586 144.992C119.086 142.134 117.787 139.515 115.907 137.636C113.448 135.177 109.848 133.618 105.509 133.618C101.17 133.618 97.6511 135.097 95.0316 137.716C93.232 139.515 91.7523 141.974 91.0125 144.992H119.566H119.586ZM136.863 124.962H147.16V164.223H165.816V174.038H147.32C140.522 174.038 136.843 170.36 136.843 163.563V124.962H136.863ZM167.776 149.49C167.776 136.157 178.654 124.623 193.051 124.623C207.448 124.623 215.786 133.618 217.925 144.992H229.783V154.148H217.925C215.726 165.442 205.728 174.357 193.051 174.357C178.574 174.357 167.776 162.903 167.776 149.49ZM193.071 164.702C201.669 164.702 208.047 158.166 208.047 149.57C208.047 140.974 201.509 134.278 193.071 134.278C184.632 134.278 178.094 140.814 178.094 149.49C178.094 157.906 184.632 164.702 193.071 164.702Z" fill="#003933"/>
</svg>
