<svg width="300" height="300" viewBox="0 0 300 300" fill="none" xmlns="http://www.w3.org/2000/svg">
<rect width="300" height="300" fill="white"/>
<path d="M135.705 185.019L65.8872 185.043V184.88C65.8872 184.79 65.9986 184.208 66.1347 183.586C66.2708 182.964 66.4823 181.975 66.6048 181.388C66.7273 180.801 66.9368 179.803 67.0703 179.171C67.2038 178.539 67.4256 177.485 67.5632 176.831C67.7008 176.176 67.9163 175.141 68.0422 174.531C68.168 173.922 68.3781 172.924 68.5091 172.314C68.64 171.705 68.8633 170.651 69.0052 169.974C69.1471 169.296 69.3629 168.262 69.4846 167.675C69.6064 167.088 69.7999 166.182 69.9146 165.663C70.0293 165.144 70.1756 164.441 70.2396 164.103C70.3037 163.764 70.5109 162.766 70.7001 161.886C70.8894 161.005 71.0983 160.007 71.1644 159.669C71.2305 159.33 71.4403 158.332 71.6307 157.451C71.8211 156.571 72.0302 155.573 72.0955 155.234C72.1607 154.896 72.371 153.898 72.5628 153.017C72.7546 152.137 72.9616 151.157 73.0228 150.841C73.084 150.525 73.2517 149.712 73.3954 149.035C73.5391 148.357 73.811 147.082 73.9996 146.202C74.1882 145.321 74.5109 143.788 74.7166 142.794C74.9223 141.8 75.1681 140.618 75.2629 140.166C75.3576 139.715 75.5289 138.902 75.6436 138.36C75.7582 137.818 75.9664 136.839 76.1062 136.184C76.246 135.529 76.4735 134.457 76.6117 133.802C76.7499 133.148 76.9629 132.131 77.085 131.544C77.207 130.957 77.4154 129.978 77.548 129.368C77.6806 128.758 77.9087 127.687 78.0548 126.987C78.201 126.287 78.4458 125.215 78.5989 124.606C78.752 123.996 78.9685 123.257 79.0799 122.963C79.1914 122.67 79.499 122.033 79.7636 121.549L80.2447 120.669L80.6821 120.112C80.9226 119.806 81.3521 119.322 81.6364 119.037C81.9208 118.752 82.4006 118.323 82.7027 118.084C83.0048 117.844 83.4421 117.522 83.6745 117.366C83.9068 117.211 84.3631 116.939 84.6885 116.762C85.0138 116.585 85.4701 116.353 85.7025 116.246C85.9348 116.14 86.4101 115.946 86.7587 115.815C87.1073 115.684 87.7727 115.465 88.2375 115.327C88.7022 115.19 89.5746 114.983 90.1761 114.868C90.7776 114.752 91.7282 114.598 92.2886 114.525L93.3075 114.392L163.168 114.366L233.028 114.34V114.503C233.028 114.593 232.916 115.175 232.779 115.797C232.642 116.419 232.413 117.482 232.27 118.16C232.128 118.837 231.919 119.816 231.807 120.336C231.695 120.855 231.483 121.853 231.336 122.553C231.189 123.253 230.963 124.324 230.834 124.934C230.704 125.544 230.494 126.541 230.368 127.151C230.241 127.761 230.03 128.758 229.899 129.368C229.768 129.978 229.565 130.939 229.448 131.503C229.33 132.068 229.118 133.084 228.976 133.761C228.834 134.439 228.605 135.51 228.468 136.143C228.331 136.775 228.123 137.754 228.005 138.319C227.887 138.883 227.674 139.899 227.533 140.577C227.391 141.254 227.163 142.326 227.026 142.958C226.889 143.59 226.685 144.551 226.573 145.093C226.46 145.635 226.249 146.651 226.102 147.351C225.956 148.051 225.743 149.068 225.629 149.609C225.514 150.151 225.31 151.112 225.175 151.744C225.04 152.377 224.809 153.467 224.661 154.167C224.514 154.867 224.303 155.865 224.193 156.384C224.082 156.903 223.876 157.883 223.734 158.56C223.592 159.237 223.365 160.309 223.231 160.941C223.097 161.574 222.886 162.571 222.763 163.158C222.64 163.746 222.426 164.762 222.288 165.417C222.149 166.071 221.923 167.143 221.785 167.798C221.647 168.453 221.44 169.432 221.326 169.974C221.211 170.516 221.001 171.514 220.86 172.191C220.718 172.868 220.488 173.936 220.348 174.563L220.094 175.704L219.79 176.493C219.624 176.927 219.373 177.504 219.233 177.775C219.094 178.046 218.809 178.524 218.602 178.837C218.394 179.151 218.104 179.552 217.957 179.73C217.811 179.907 217.371 180.365 216.979 180.747L216.266 181.442L215.58 181.916C215.203 182.176 214.797 182.441 214.678 182.505C214.558 182.568 214.104 182.793 213.668 183.005C213.232 183.218 212.616 183.488 212.299 183.606C211.982 183.723 211.355 183.924 210.905 184.051C210.455 184.179 209.972 184.304 209.833 184.33C209.694 184.356 209.21 184.453 208.757 184.546C208.305 184.64 207.393 184.778 206.729 184.855L205.523 184.995L135.705 185.019ZM110.865 167.469H112.682L112.733 167.34C112.762 167.268 112.785 167.1 112.785 166.966C112.785 166.832 112.845 166.346 112.918 165.885C112.991 165.424 113.163 164.363 113.3 163.528C113.436 162.692 113.641 161.436 113.755 160.736C113.868 160.036 114.007 159.14 114.062 158.745C114.118 158.35 114.186 158.026 114.214 158.026C114.241 158.026 114.359 158.201 114.475 158.414L114.686 158.802L115.154 159.261L115.623 159.72L116.199 159.944L116.776 160.168L117.463 160.255L118.15 160.341L119.023 160.289L119.895 160.237L120.84 160L121.784 159.762L122.291 159.537C122.57 159.414 123.064 159.144 123.389 158.938L123.981 158.564L124.532 158.028C124.836 157.734 125.264 157.261 125.483 156.978C125.703 156.696 125.882 156.444 125.882 156.418C125.882 156.393 125.99 156.218 126.122 156.029C126.254 155.84 126.523 155.316 126.721 154.865C126.919 154.413 127.229 153.6 127.409 153.058L127.736 152.073L127.905 151.219C127.999 150.75 128.118 149.974 128.172 149.495L128.268 148.624L128.213 147.885L128.157 147.146L127.98 146.407L127.804 145.668L127.518 145.115L127.233 144.561L126.682 143.993L126.13 143.425L125.478 143.098L124.826 142.77L124.108 142.603L123.389 142.436L122.671 142.385L121.953 142.334L121.153 142.423L120.353 142.512L119.7 142.674L119.047 142.836L118.479 143.091C118.167 143.232 117.713 143.47 117.47 143.621C117.228 143.772 116.977 143.946 116.914 144.007C116.85 144.069 116.699 144.182 116.577 144.26L116.355 144.401L116.51 143.679C116.595 143.283 116.667 142.912 116.668 142.856L116.672 142.753H115.123H113.573L113.302 144.416C113.152 145.33 112.916 146.744 112.777 147.557C112.639 148.37 112.429 149.589 112.312 150.266C112.195 150.944 111.986 152.145 111.848 152.935C111.71 153.725 111.481 154.982 111.34 155.727C111.199 156.472 110.993 157.562 110.881 158.149C110.77 158.737 110.56 159.845 110.415 160.613C110.27 161.381 110.037 162.6 109.897 163.323C109.758 164.045 109.53 165.191 109.392 165.868C109.254 166.546 109.12 167.183 109.095 167.285L109.048 167.469H110.865ZM118.687 157.975L117.981 158.017L117.52 157.938L117.059 157.858L116.591 157.651L116.122 157.443L115.795 157.139L115.468 156.836L115.279 156.425C115.175 156.199 115.042 155.816 114.983 155.573L114.875 155.131L114.918 154.423L114.961 153.715L115.179 152.607C115.299 151.997 115.514 150.851 115.657 150.061C115.8 149.271 116.016 148.113 116.138 147.488L116.359 146.351L116.844 145.96C117.11 145.744 117.532 145.455 117.782 145.318L118.235 145.068L118.826 144.89L119.418 144.712L120.178 144.669L120.939 144.625L121.558 144.753L122.177 144.882L122.614 145.077L123.051 145.273L123.418 145.631L123.784 145.989L123.982 146.368C124.091 146.577 124.244 146.985 124.321 147.275L124.463 147.803L124.42 149.363L124.376 150.923L124.159 151.846C124.04 152.353 123.813 153.129 123.654 153.57L123.366 154.372L123.014 155.022C122.82 155.379 122.521 155.861 122.349 156.094C122.178 156.327 121.904 156.628 121.742 156.764C121.579 156.9 121.307 157.112 121.136 157.236L120.827 157.46L120.11 157.697L119.392 157.934L118.687 157.975ZM136.233 160.233L137.163 160.243L138.092 160.161C138.604 160.116 139.44 160.021 139.951 159.951C140.463 159.881 141.346 159.725 141.914 159.603L142.947 159.382L142.998 159.012C143.027 158.809 143.143 158.203 143.256 157.666L143.463 156.689L143.417 156.645L143.372 156.601L143.056 156.749C142.882 156.831 142.341 157.025 141.854 157.181L140.967 157.465L140.037 157.64L139.106 157.815L137.628 157.818L136.149 157.821L135.642 157.664C135.363 157.577 134.953 157.419 134.731 157.312L134.326 157.117L133.992 156.824L133.659 156.531L133.398 156.089L133.138 155.646L132.974 155.092L132.811 154.537L132.81 153.51L132.809 152.483L132.954 151.568L133.099 150.652L134.37 150.594L135.642 150.536L140.342 150.565L145.043 150.595L145.185 150.01C145.263 149.688 145.382 149.023 145.45 148.532L145.573 147.639L145.576 146.887L145.578 146.136L145.445 145.575L145.311 145.015L145.089 144.643C144.968 144.439 144.753 144.143 144.613 143.986C144.472 143.828 144.222 143.606 144.056 143.492C143.89 143.378 143.564 143.187 143.331 143.067L142.909 142.848L142.171 142.675L141.433 142.503L140.523 142.418L139.613 142.334L138.768 142.387L137.923 142.44L136.909 142.63L135.895 142.819L135.262 143.065C134.913 143.201 134.381 143.448 134.079 143.614C133.777 143.78 133.358 144.051 133.149 144.216C132.94 144.381 132.578 144.701 132.345 144.927C132.111 145.154 131.766 145.561 131.577 145.832C131.389 146.103 131.1 146.584 130.935 146.9C130.77 147.216 130.555 147.659 130.458 147.885C130.36 148.111 130.183 148.573 130.063 148.911C129.944 149.25 129.757 149.897 129.647 150.348C129.537 150.8 129.387 151.544 129.312 152.001L129.178 152.832L129.179 154.053L129.18 155.275L129.309 155.809C129.379 156.103 129.514 156.546 129.609 156.795C129.703 157.043 129.878 157.412 129.997 157.616C130.116 157.819 130.37 158.146 130.562 158.343C130.753 158.54 131.1 158.838 131.332 159.006C131.565 159.174 131.979 159.411 132.252 159.532L132.749 159.751L133.441 159.914C133.822 160.004 134.397 160.11 134.719 160.15C135.041 160.19 135.722 160.227 136.233 160.233ZM137.825 148.665C135.486 148.665 133.572 148.649 133.572 148.629C133.572 148.609 133.672 148.323 133.794 147.993C133.916 147.662 134.13 147.171 134.27 146.901L134.524 146.409L135.083 145.869L135.642 145.328L136.191 145.073C136.493 144.933 136.893 144.78 137.078 144.734C137.264 144.687 137.797 144.626 138.261 144.597L139.106 144.544L139.755 144.625L140.404 144.706L140.876 144.916L141.347 145.126L141.606 145.397C141.748 145.546 141.918 145.766 141.983 145.885L142.101 146.102L142.179 146.583L142.257 147.064L142.168 147.865L142.078 148.665H137.825ZM163.105 160.233L164.035 160.243L165.091 160.122C165.671 160.055 166.444 159.944 166.808 159.875C167.172 159.807 167.762 159.671 168.118 159.573C168.474 159.475 168.797 159.369 168.834 159.338C168.872 159.307 168.973 158.934 169.058 158.51C169.144 158.086 169.251 157.517 169.297 157.246C169.343 156.975 169.367 156.739 169.35 156.721C169.333 156.704 169.271 156.726 169.212 156.772C169.152 156.818 168.738 156.987 168.29 157.149L167.477 157.443L166.318 157.661L165.159 157.879L164.174 157.846L163.189 157.814L162.629 157.625L162.07 157.436L161.637 157.069L161.205 156.701L160.918 156.194L160.631 155.686L160.495 155.007L160.358 154.328L160.359 153.447L160.36 152.566L160.526 151.498L160.692 150.431L160.868 149.856C160.964 149.54 161.073 149.17 161.11 149.035C161.147 148.899 161.302 148.511 161.455 148.172C161.607 147.834 161.879 147.31 162.059 147.009L162.386 146.462L162.788 146.057L163.19 145.653L163.615 145.396L164.04 145.14L164.587 144.976C164.887 144.886 165.418 144.77 165.767 144.717L166.401 144.621L167.33 144.666L168.26 144.711L169.358 144.925L170.457 145.139L170.903 145.301C171.149 145.39 171.361 145.463 171.374 145.463C171.387 145.463 171.446 145.158 171.505 144.785C171.564 144.413 171.669 143.8 171.738 143.423C171.807 143.046 171.847 142.722 171.827 142.702C171.806 142.682 171.476 142.631 171.093 142.589C170.71 142.547 169.668 142.471 168.779 142.421L167.161 142.331L166.02 142.416L164.88 142.501L164.035 142.674L163.19 142.846L162.645 143.058C162.346 143.174 161.908 143.384 161.671 143.524C161.435 143.665 161.134 143.853 161.002 143.944C160.871 144.034 160.472 144.386 160.116 144.727L159.469 145.346L159.107 145.86C158.909 146.143 158.565 146.733 158.344 147.171L157.941 147.967L157.632 148.829C157.463 149.304 157.226 150.08 157.106 150.554L156.888 151.416L156.809 152.196L156.73 152.976L156.73 154.003L156.731 155.029L156.811 155.626L156.891 156.223L157.144 156.838L157.397 157.452L157.689 157.896L157.982 158.34L158.447 158.784L158.911 159.229L159.403 159.482L159.895 159.734L160.541 159.909C160.896 160.004 161.41 160.114 161.682 160.153C161.954 160.192 162.595 160.228 163.106 160.233H163.105ZM177.005 160.203L178.145 160.171L178.864 159.993L179.582 159.814L180.047 159.6C180.302 159.483 180.721 159.251 180.976 159.085C181.232 158.919 181.627 158.604 181.855 158.384C182.083 158.165 182.421 157.79 182.607 157.552C182.792 157.314 182.955 157.129 182.968 157.143C182.982 157.156 182.939 157.536 182.873 157.987C182.808 158.437 182.753 159.037 182.752 159.32L182.751 159.833H184.302H185.852L185.9 158.663L185.947 157.493L186.169 155.973C186.29 155.138 186.487 153.9 186.605 153.223C186.724 152.545 186.93 151.4 187.063 150.677C187.197 149.954 187.408 148.827 187.533 148.172L187.76 146.982L187.767 145.953L187.775 144.925L187.535 144.45L187.296 143.974L186.972 143.671L186.647 143.369L186.114 143.106L185.582 142.844L184.788 142.672L183.993 142.501L182.9 142.42L181.807 142.339L180.399 142.424C179.624 142.47 178.534 142.562 177.977 142.628L176.963 142.748L176.271 142.75L175.58 142.753L175.48 143.225C175.425 143.485 175.271 144.102 175.138 144.596C175.006 145.09 174.91 145.507 174.925 145.522C174.94 145.536 175.309 145.455 175.746 145.34C176.183 145.226 177.11 145.038 177.808 144.923L179.075 144.713L180.216 144.667L181.357 144.622L182.091 144.747L182.826 144.872L183.317 145.107L183.807 145.343L184.082 145.74L184.356 146.138L184.352 146.765L184.349 147.392L184.203 148.081L184.057 148.769L181.017 148.779L177.977 148.79L176.981 149.055C176.434 149.201 175.828 149.395 175.635 149.485C175.441 149.576 175.248 149.651 175.205 149.651C175.162 149.651 174.836 149.826 174.481 150.04L173.836 150.43L173.328 150.923C173.048 151.194 172.691 151.601 172.534 151.827C172.377 152.052 172.122 152.524 171.968 152.875L171.686 153.513L171.557 154.23L171.428 154.947V155.699V156.452L171.552 157.078L171.675 157.704L171.904 158.113C172.03 158.338 172.261 158.667 172.417 158.844L172.701 159.167L173.207 159.466L173.712 159.764L174.291 159.923C174.609 160.011 175.093 160.116 175.367 160.158L175.865 160.235L177.005 160.203L177.005 160.203ZM178.061 157.907L177.385 157.941L176.937 157.83C176.691 157.769 176.317 157.633 176.107 157.528L175.724 157.337L175.515 157.096C175.401 156.963 175.225 156.703 175.126 156.517L174.944 156.179L174.909 155.389L174.873 154.6L175.017 154.121C175.095 153.858 175.28 153.401 175.427 153.106L175.695 152.569L176.207 152.075L176.719 151.58L177.263 151.326L177.807 151.071L178.483 150.915L179.159 150.759H181.272H183.384L183.518 150.813L183.652 150.866L183.539 151.511C183.477 151.865 183.33 152.506 183.211 152.935C183.093 153.364 182.884 153.995 182.747 154.337C182.609 154.679 182.497 154.981 182.497 155.008C182.497 155.036 182.358 155.285 182.189 155.562L181.88 156.065L181.373 156.553C181.095 156.821 180.836 157.041 180.798 157.041C180.761 157.041 180.59 157.133 180.419 157.246L180.107 157.452L179.422 157.662L178.737 157.873L178.061 157.907ZM205.566 160.232L206.368 160.242L207.129 160.122C207.547 160.056 208.08 159.95 208.312 159.886C208.544 159.822 208.963 159.656 209.241 159.517L209.748 159.265L210.185 158.892L210.621 158.519L211.08 157.924C211.333 157.596 211.562 157.273 211.589 157.205L211.638 157.082L211.595 157.493C211.571 157.718 211.519 158.088 211.478 158.314C211.437 158.539 211.379 158.974 211.348 159.278L211.292 159.833H212.95H214.607V159.278V158.724L214.86 156.63C214.999 155.479 215.204 153.945 215.316 153.223C215.428 152.5 215.601 151.465 215.701 150.923C215.8 150.381 215.976 149.402 216.092 148.747C216.208 148.092 216.417 146.947 216.557 146.202C216.697 145.457 216.92 144.274 217.054 143.574C217.188 142.874 217.396 141.784 217.516 141.152C217.636 140.519 217.852 139.411 217.995 138.688C218.138 137.966 218.347 136.949 218.459 136.43C218.571 135.911 218.663 135.458 218.663 135.424V135.363H216.855H215.046L214.993 135.876C214.963 136.158 214.825 137.091 214.685 137.949C214.545 138.807 214.317 140.175 214.179 140.987C214.04 141.8 213.906 142.589 213.881 142.739L213.836 143.013L213.694 142.954C213.615 142.922 213.19 142.807 212.748 142.699L211.945 142.503L210.847 142.42L209.748 142.337L208.819 142.421L207.889 142.505L207.044 142.713L206.199 142.92L205.397 143.301L204.594 143.681L204.002 144.107L203.411 144.533L202.9 145.065C202.619 145.357 202.213 145.842 201.998 146.141L201.607 146.684L201.148 147.613C200.895 148.124 200.588 148.801 200.464 149.117C200.341 149.433 200.124 150.134 199.982 150.674L199.723 151.657L199.596 152.932L199.468 154.208L199.564 155.234L199.66 156.261L199.773 156.63C199.835 156.834 199.966 157.196 200.064 157.435L200.243 157.87L200.568 158.298L200.893 158.726L201.265 159.022L201.636 159.317L202.143 159.562C202.422 159.696 202.89 159.87 203.183 159.948C203.476 160.026 203.951 160.12 204.239 160.156C204.527 160.193 205.124 160.227 205.566 160.232H205.566ZM207.006 157.903L206.368 157.936L205.938 157.86C205.701 157.819 205.322 157.708 205.096 157.613L204.684 157.442L204.338 157.166L203.991 156.89L203.734 156.411L203.477 155.932L203.359 155.399L203.242 154.865L203.252 153.797L203.262 152.73L203.398 151.786L203.534 150.841L203.746 150.184C203.862 149.823 203.958 149.482 203.959 149.427C203.96 149.371 204.075 149.076 204.214 148.77C204.354 148.464 204.588 147.992 204.734 147.721C204.879 147.45 205.152 147.027 205.339 146.782C205.526 146.537 205.859 146.167 206.079 145.961C206.3 145.755 206.65 145.484 206.858 145.36L207.237 145.133L207.901 144.91L208.565 144.687L209.96 144.686H211.354L212.157 144.902C212.598 145.021 213.067 145.159 213.198 145.209L213.437 145.299L213.391 145.525C213.365 145.649 213.265 146.194 213.168 146.735C213.071 147.277 212.879 148.312 212.743 149.035C212.606 149.757 212.396 150.847 212.276 151.457C212.156 152.067 211.982 152.843 211.889 153.181C211.797 153.52 211.667 153.989 211.6 154.224C211.533 154.459 211.373 154.865 211.245 155.127C211.117 155.389 210.893 155.77 210.748 155.973C210.602 156.177 210.356 156.458 210.2 156.599C210.045 156.74 209.708 156.99 209.453 157.155L208.988 157.455L208.316 157.663L207.645 157.87L207.006 157.903ZM82.6433 159.833H84.6965L84.8438 158.95C84.9248 158.465 85.083 157.532 85.1954 156.877C85.3078 156.222 85.5169 155.002 85.6602 154.167C85.8034 153.331 86.0182 152.093 86.1374 151.416C86.2566 150.739 86.4461 149.688 86.5584 149.081C86.6707 148.474 86.7838 147.956 86.8099 147.931L86.8573 147.885H92.3779H97.8986L97.9599 147.945L98.0212 148.004L97.9255 148.478C97.8728 148.739 97.7171 149.544 97.5794 150.266C97.4417 150.989 97.2102 152.208 97.065 152.976C96.9197 153.744 96.7097 154.834 96.5983 155.399C96.4869 155.963 96.2613 157.146 96.0972 158.026C95.933 158.907 95.799 159.674 95.7994 159.73L95.8003 159.833H97.8618H99.9234L100.015 159.32C100.065 159.037 100.146 158.529 100.194 158.19C100.243 157.852 100.359 157.131 100.454 156.589C100.548 156.047 100.737 154.976 100.873 154.208C101.009 153.44 101.237 152.128 101.379 151.293C101.521 150.457 101.733 149.238 101.848 148.583C101.964 147.928 102.17 146.82 102.307 146.12C102.443 145.42 102.67 144.237 102.811 143.492C102.952 142.747 103.164 141.62 103.281 140.987C103.399 140.355 103.613 139.21 103.757 138.442C103.901 137.674 104.083 136.778 104.161 136.451L104.304 135.855H102.216H100.129L100.072 136.245C100.041 136.46 99.9401 137.06 99.8481 137.58C99.7561 138.099 99.5887 139.023 99.4761 139.633C99.3635 140.242 99.1578 141.406 99.019 142.219C98.8801 143.032 98.7031 144.108 98.6257 144.611L98.4849 145.524L95.4208 145.584L92.3566 145.644L89.7901 145.585C88.3785 145.553 87.2157 145.52 87.2061 145.512C87.1966 145.504 87.2446 145.185 87.313 144.803C87.3813 144.42 87.5106 143.757 87.6002 143.328C87.6899 142.899 87.8598 142.049 87.9779 141.439C88.096 140.829 88.2298 140.072 88.2752 139.756C88.3205 139.44 88.4157 138.913 88.4866 138.586C88.5574 138.258 88.692 137.568 88.7855 137.053C88.879 136.537 88.9787 136.057 89.007 135.985L89.0583 135.855H86.9878H84.9173L84.7847 136.574C84.7118 136.969 84.6145 137.532 84.5686 137.826C84.5227 138.12 84.3684 139.062 84.2259 139.92C84.0833 140.778 83.8728 142.053 83.7582 142.753C83.6435 143.453 83.4347 144.728 83.2942 145.586C83.1536 146.444 82.9217 147.774 82.7788 148.542C82.6359 149.31 82.429 150.4 82.3191 150.964C82.2091 151.529 81.9996 152.601 81.8534 153.346C81.7073 154.091 81.4941 155.144 81.3797 155.686C81.2652 156.228 81.1387 156.856 81.0985 157.082C81.0583 157.308 80.9275 157.959 80.8079 158.529C80.6882 159.099 80.5903 159.626 80.5903 159.699V159.833H82.6433ZM105.372 159.833H107.19L107.241 159.703C107.269 159.631 107.292 159.444 107.292 159.286C107.292 159.129 107.406 158.31 107.546 157.466C107.686 156.623 107.917 155.249 108.059 154.413C108.202 153.578 108.412 152.358 108.526 151.703C108.641 151.049 108.845 149.958 108.98 149.281C109.114 148.604 109.321 147.55 109.438 146.941C109.556 146.331 109.788 145.171 109.954 144.363C110.119 143.555 110.275 142.861 110.3 142.822L110.346 142.75L108.508 142.772L106.67 142.794L106.517 143.861C106.433 144.449 106.249 145.613 106.108 146.448C105.967 147.284 105.754 148.558 105.635 149.281C105.515 150.004 105.307 151.168 105.172 151.868C105.037 152.568 104.829 153.639 104.711 154.249C104.593 154.859 104.382 155.93 104.241 156.63C104.1 157.33 103.911 158.254 103.821 158.683C103.731 159.112 103.634 159.546 103.606 159.648L103.554 159.833H105.372ZM147.882 159.833H149.686L149.74 159.091C149.77 158.683 149.872 157.861 149.967 157.264C150.062 156.667 150.256 155.477 150.399 154.618C150.542 153.76 150.807 152.332 150.988 151.445C151.17 150.557 151.375 149.675 151.444 149.484C151.514 149.293 151.57 149.087 151.57 149.025C151.57 148.963 151.706 148.626 151.872 148.275C152.037 147.925 152.346 147.389 152.558 147.084L152.943 146.529L153.459 146.065L153.974 145.601L154.61 145.306L155.246 145.011L156.218 145.016L157.189 145.021L157.667 145.16C157.93 145.236 158.168 145.298 158.195 145.298C158.223 145.298 158.246 145.211 158.246 145.104C158.246 144.998 158.341 144.457 158.457 143.902C158.573 143.348 158.668 142.871 158.668 142.843C158.668 142.814 158.393 142.709 158.056 142.61C157.719 142.51 157.253 142.406 157.02 142.378L156.598 142.327L156.049 142.421C155.747 142.473 155.297 142.588 155.051 142.676C154.804 142.764 154.396 142.964 154.145 143.121C153.893 143.277 153.502 143.581 153.276 143.797C153.049 144.013 152.668 144.449 152.429 144.765C152.19 145.081 151.94 145.413 151.873 145.504L151.752 145.668L151.826 145.339C151.866 145.159 151.978 144.568 152.076 144.026C152.173 143.484 152.272 142.976 152.297 142.897L152.342 142.753H150.731H149.12V142.951C149.12 143.06 149.025 143.716 148.908 144.408C148.792 145.101 148.6 146.259 148.482 146.982C148.364 147.704 148.155 148.961 148.017 149.774C147.879 150.587 147.669 151.751 147.551 152.36C147.433 152.97 147.224 154.042 147.085 154.742C146.947 155.442 146.718 156.587 146.576 157.287C146.433 157.987 146.263 158.814 146.197 159.124C146.132 159.435 146.078 159.721 146.078 159.761V159.833L147.882 159.833ZM190.708 159.833H192.553V159.284V158.736L192.765 157.375C192.882 156.627 193.075 155.442 193.194 154.742C193.313 154.042 193.461 153.155 193.523 152.771C193.585 152.387 193.75 151.556 193.889 150.923C194.029 150.291 194.203 149.607 194.276 149.404C194.349 149.201 194.41 148.988 194.41 148.93C194.411 148.873 194.568 148.504 194.76 148.11L195.108 147.395L195.567 146.802L196.027 146.209L196.53 145.841C196.806 145.639 197.251 145.371 197.518 145.246L198.003 145.017L199.059 145.024L200.115 145.031L200.531 145.161L200.947 145.291L201.017 145.249L201.087 145.207L201.091 144.945C201.093 144.801 201.183 144.264 201.292 143.753L201.489 142.823L201.267 142.739C201.145 142.692 200.855 142.596 200.622 142.525L200.2 142.396L199.439 142.398L198.679 142.4L198.059 142.612L197.439 142.823L196.974 143.096L196.509 143.369L195.904 143.985L195.299 144.601L194.974 145.078C194.795 145.341 194.637 145.544 194.624 145.53C194.61 145.516 194.707 144.968 194.84 144.313C194.972 143.658 195.082 143.039 195.084 142.938L195.088 142.753H193.524H191.961V142.805C191.961 142.834 191.883 143.361 191.788 143.975C191.693 144.59 191.502 145.777 191.363 146.612C191.225 147.448 190.997 148.797 190.858 149.61C190.719 150.422 190.509 151.586 190.392 152.196C190.274 152.806 190.066 153.877 189.928 154.577C189.791 155.277 189.565 156.405 189.427 157.082C189.288 157.759 189.105 158.655 189.019 159.073L188.863 159.833L190.708 159.833ZM108.946 139.795L109.459 139.797L109.867 139.662L110.275 139.527L110.636 139.171L110.997 138.815L111.187 138.341L111.377 137.867L111.384 137.169L111.39 136.471L111.221 136.199L111.052 135.926L110.758 135.749L110.464 135.572H109.829L109.193 135.572L108.761 135.76L108.328 135.948L108.077 136.21L107.826 136.471L107.629 136.923L107.432 137.374L107.395 138.078L107.358 138.781L107.541 139.131L107.725 139.481L108.079 139.637L108.433 139.793L108.946 139.795Z" fill="#B3131B"/>
</svg>
