<svg width="300" height="300" viewBox="0 0 300 300" fill="none" xmlns="http://www.w3.org/2000/svg">
<rect width="300" height="300" fill="#EA7100"/>
<path d="M145.824 164.345H153.603V172.718H147.138C140.334 172.718 136.158 170.365 136.158 161.738V143.042H131.537C130.732 143.042 130.308 142.067 130.859 141.474L144.234 126.297C144.807 125.682 145.845 126.085 145.845 126.933V134.669H153.561V143.042H145.845V164.345H145.824ZM118.098 134.055C113.457 134.055 109.98 136.726 108.284 140.923H107.966V134.648H98.7457V172.718H108.433V143.212H114.898C117.717 143.212 118.756 143.806 118.756 146.815V172.718H128.443V144.929C128.421 137.277 124.754 134.055 118.098 134.055ZM82 172.718H91.687V134.648H82V172.718ZM208.737 141.389H208.334V134.648H198.711V172.718H208.97V143.742H218V134.055H216.749C212.001 134.055 209.903 136.153 208.737 141.389ZM194.217 152.708V155.591H165.177C165.707 161.251 169.247 165.002 174.716 165.002C179.612 165.002 183.152 162.395 183.873 159.173H194.196C192.033 167.207 184.657 173.354 174.567 173.354C162.803 173.354 154.812 164.981 154.812 154.001C154.812 143.021 162.527 134.055 174.822 134.055C186.438 134.055 194.217 142.046 194.217 152.708ZM165.474 148.575H184.212C182.749 144.759 179.655 142.025 174.864 142.025C170.667 142.046 166.979 144.251 165.474 148.575Z" fill="white"/>
</svg>
