<svg width="300" height="300" viewBox="0 0 300 300" fill="none" xmlns="http://www.w3.org/2000/svg">
<rect width="300" height="300" fill="#FF6200"/>
<path d="M140.603 78.1722C136.464 78.2706 133.427 78.4161 127.861 78.7593C125.286 78.9129 122.476 79.1391 120.497 79.3371C120 79.3911 118.961 79.4907 118.193 79.5633C114.967 79.8798 110.177 80.4843 108.163 80.8278C107.737 80.9004 107.114 81 106.762 81.054C106.419 81.0996 105.804 81.2073 105.406 81.2802C105.009 81.3528 104.34 81.4794 103.916 81.5508C102.424 81.804 99.8859 82.3194 98.4492 82.6629C98.0508 82.7625 97.3371 82.9335 96.8673 83.0427C96.3972 83.1504 95.9733 83.25 95.9193 83.2593C93.2706 83.8911 90.6411 85.1661 88.6173 86.8194C86.6472 88.419 84.8859 91.0032 84 93.5694C83.856 93.9669 83.7105 94.3734 83.6661 94.473C83.5125 94.8165 82.8435 97.7073 82.3641 100.076C82.2927 100.473 82.1661 101.06 82.0935 101.386C82.0206 101.71 81.9225 102.28 81.8589 102.65C81.804 103.021 81.7323 103.473 81.6867 103.644C81.5508 104.16 81 107.683 80.6472 110.241C80.304 112.717 80.0778 114.516 79.8798 116.34C79.7802 117.234 79.6806 118.111 79.6629 118.283C79.6359 118.454 79.554 119.331 79.473 120.226C79.4004 121.12 79.2927 122.214 79.2375 122.666C79.0476 124.328 78.5775 131.566 78.3435 136.672C78.1629 140.457 78.0456 148.563 78.1089 152.982C78.1722 158.494 78.3069 163.419 78.4335 165.136C78.4794 165.831 78.5694 167.296 78.6234 168.389C78.6774 169.482 78.75 170.883 78.7956 171.506C79.0032 174.633 79.1661 176.683 79.2468 177.334C79.2927 177.732 79.4004 178.789 79.473 179.674C79.5456 180.56 79.6536 181.617 79.6992 182.024C79.7532 182.431 79.8528 183.307 79.9242 183.976C80.1504 186.117 80.3226 187.518 80.4669 188.449C80.5395 188.946 80.6661 189.796 80.7375 190.346C81 192.334 81.3069 194.267 81.6411 196.039C81.7137 196.437 81.831 197.106 81.9129 197.53C82.0665 198.433 82.419 200.232 82.6722 201.37C83.5392 205.356 83.919 206.548 84.9399 208.509C85.2198 209.051 85.581 209.683 85.7439 209.91C85.8972 210.136 86.1234 210.46 86.2407 210.633C86.7561 211.4 88.2294 212.9 89.0427 213.479C89.1774 213.578 89.4399 213.767 89.6109 213.904C89.7927 214.048 89.9637 214.156 90.0093 214.156C90.0456 214.156 90.1359 214.22 90.2073 214.293C90.5601 214.636 93.0456 215.82 94.1109 216.136C94.3101 216.199 94.554 216.28 94.6536 216.326C94.8891 216.434 96.2166 216.768 97.8165 217.13C98.5125 217.293 99.2262 217.464 99.3975 217.509C99.8133 217.617 102.433 218.141 104.413 218.503C105.551 218.71 107.766 219.063 109.156 219.262C109.681 219.334 110.35 219.433 110.647 219.487C111.741 219.677 116.259 220.202 119.096 220.473C120.117 220.573 121.373 220.69 121.897 220.744C122.747 220.834 123.614 220.906 127.771 221.204C128.394 221.25 129.813 221.331 130.934 221.386C132.054 221.44 133.617 221.521 134.413 221.566C140.846 221.937 159.244 221.937 165.587 221.566C166.383 221.512 167.946 221.44 169.066 221.386C170.991 221.296 171.696 221.25 174.714 221.024C178.581 220.726 184.266 220.174 186.19 219.904C186.741 219.823 187.69 219.696 188.313 219.614C190.617 219.316 193.78 218.837 195.587 218.503C197.566 218.141 200.187 217.617 200.603 217.509C200.774 217.464 201.487 217.293 202.184 217.13C203.747 216.777 205.103 216.434 205.346 216.326C205.647 216.218 205.948 216.112 206.25 216.009C206.991 215.766 209.449 214.6 209.656 214.4C209.72 214.337 209.9 214.202 210.054 214.111C210.759 213.669 211.084 213.416 211.726 212.837C212.449 212.177 213.452 211.093 213.696 210.723C213.777 210.596 213.994 210.289 214.174 210.046C214.364 209.793 214.518 209.566 214.518 209.53C214.518 209.494 214.663 209.241 214.834 208.97C215.006 208.699 215.214 208.301 215.296 208.084C215.386 207.877 215.476 207.65 215.512 207.606C215.683 207.38 216.316 205.581 216.587 204.56C217.012 202.979 217.807 199.247 218.096 197.484C218.169 197.033 218.25 196.609 218.277 196.536C218.359 196.337 218.856 193.237 219.307 190.076C219.406 189.38 219.506 188.684 219.533 188.539C219.606 188.123 219.931 185.35 220.076 183.886C220.147 183.163 220.247 182.331 220.301 182.033C220.356 181.734 220.454 180.759 220.527 179.864C220.6 178.97 220.699 177.867 220.744 177.424C220.798 176.973 220.88 175.943 220.933 175.12C220.987 174.298 221.069 173.286 221.114 172.861C221.169 172.437 221.268 170.873 221.34 169.383C221.422 167.891 221.512 166.057 221.566 165.316C221.973 158.747 221.973 141.506 221.566 134.729C221.521 133.96 221.44 132.452 221.386 131.386C221.331 130.319 221.25 128.91 221.204 128.268C221.15 127.617 221.033 126.018 220.933 124.699C220.834 123.38 220.734 122.141 220.707 121.943C220.68 121.744 220.6 120.867 220.527 120C220.454 119.133 220.373 118.319 220.346 118.193C220.319 118.066 220.22 117.234 220.12 116.34C219.886 114.18 219.596 111.796 219.533 111.516C219.506 111.389 219.406 110.666 219.307 109.924C218.864 106.546 218.043 101.837 217.337 98.6298C217.237 98.1774 217.076 97.446 216.976 97.0032C216.723 95.8464 216.424 94.6806 216.326 94.473C216.28 94.3734 216.199 94.1298 216.136 93.9306C215.937 93.2625 214.933 91.0302 214.681 90.6774C214.644 90.6234 214.356 90.1992 214.048 89.7294C213.406 88.7625 211.762 87.0456 210.777 86.3226C208.826 84.8859 206.656 83.9097 203.856 83.223C203.373 83.105 202.891 82.9843 202.41 82.8609C202.076 82.7625 201.406 82.6173 199.97 82.3194C199.563 82.234 199.156 82.1465 198.75 82.0569C197.006 81.6327 191.331 80.7105 187.636 80.2407C186.894 80.1504 186.163 80.0508 186.009 80.0157C185.737 79.9605 184.427 79.8258 181.762 79.5633C181.021 79.4907 180 79.3827 179.503 79.3371C179.006 79.2831 178.111 79.2021 177.516 79.1472C176.919 79.1028 175.943 79.0206 175.347 78.9762C173.323 78.804 167.702 78.4794 164.593 78.3432C158.584 78.081 147.488 78 140.603 78.1722ZM100.789 139.229C100.843 139.274 101.106 139.356 101.367 139.419C101.856 139.536 102.543 139.853 103.057 140.196C103.464 140.467 104.422 141.497 104.611 141.859C104.702 142.039 104.801 142.202 104.828 142.229C104.856 142.256 104.937 142.437 105.009 142.636C105.073 142.834 105.153 143.043 105.199 143.087C105.316 143.259 105.452 144.334 105.452 145.13C105.452 145.907 105.334 146.819 105.181 147.154C104.693 148.274 104.458 148.644 103.843 149.296C103.274 149.883 103.039 150.063 102.262 150.443C101.629 150.759 101.177 150.922 100.816 150.957C100.527 150.994 100.274 151.057 100.247 151.093C100.184 151.202 98.223 151.202 98.223 151.093C98.223 151.057 97.9968 150.994 97.7073 150.957C97.4274 150.922 97.0758 150.84 96.9222 150.777C96.7263 150.689 96.5274 150.607 96.3258 150.533C96.1536 150.47 95.9907 150.397 95.9637 150.37C95.9367 150.334 95.8008 150.253 95.6472 150.181C95.1234 149.919 94.0392 148.717 93.723 148.057C93.5508 147.704 93.3891 147.361 93.3435 147.289C93.0363 146.674 92.9823 143.873 93.2706 143.223C93.3528 143.051 93.4698 142.762 93.5331 142.59C93.5964 142.419 93.669 142.256 93.696 142.229C93.723 142.202 93.831 142.021 93.9306 141.823C94.1028 141.487 95.1774 140.331 95.331 140.331C95.367 140.331 95.4492 140.268 95.5125 140.187C95.6835 139.997 96.5601 139.573 97.0935 139.437C97.3464 139.373 97.6266 139.283 97.7262 139.237C97.8258 139.193 98.0694 139.147 98.2677 139.12C98.8008 139.066 100.672 139.147 100.789 139.229ZM199.247 145.527V150.09H181.717V143.982L182.693 143.828C184.853 143.494 186.199 143.268 186.28 143.214C186.334 143.177 186.777 143.106 187.274 143.043C187.771 142.979 188.223 142.897 188.268 142.861C188.323 142.826 188.747 142.744 189.217 142.681C189.687 142.627 190.301 142.518 190.573 142.446C190.843 142.383 191.413 142.283 191.837 142.229C192.262 142.174 192.687 142.093 192.786 142.057C192.886 142.012 193.337 141.931 193.78 141.867C194.232 141.813 194.737 141.732 194.91 141.677C195.081 141.633 195.732 141.506 196.356 141.406C196.979 141.307 197.793 141.172 198.163 141.109C198.533 141.036 198.931 140.982 199.048 140.973L199.247 140.964V145.527ZM124.427 149.557V154.97H133.463V163.012H124.419L124.454 171.389C124.482 180.416 124.463 179.973 124.952 181.084C125.323 181.943 126.37 182.819 127.274 183.036C127.427 183.073 127.6 183.144 127.672 183.199C127.843 183.334 131.503 183.334 131.666 183.19C131.737 183.136 132.063 183.063 132.406 183.027L133.012 182.964V190.889L132.768 190.997C132.543 191.096 131.503 191.259 130.076 191.431C128.043 191.666 124.337 191.693 124.12 191.467C124.066 191.422 123.922 191.386 123.786 191.386C123.433 191.386 121.97 191.114 121.861 191.033C121.807 190.997 121.563 190.906 121.31 190.853C121.067 190.789 120.823 190.707 120.768 190.672C120.723 190.627 120.516 190.546 120.316 190.482C120.117 190.419 119.937 190.337 119.91 190.31C119.883 190.283 119.72 190.183 119.548 190.084C118.798 189.687 118.573 189.543 118.174 189.207C117.94 189.018 117.723 188.856 117.677 188.856C117.587 188.846 116.9 188.096 116.359 187.41C115.943 186.877 115.328 185.856 115.12 185.331C115.048 185.16 114.967 184.997 114.94 184.97C114.904 184.943 114.813 184.663 114.723 184.337C114.641 184.012 114.533 183.669 114.487 183.569C114.443 183.47 114.334 183.063 114.262 182.666C114.186 182.288 114.104 181.912 114.018 181.536C113.954 181.266 113.91 178.084 113.883 172.066L113.847 163.012H108.614V154.97H113.856V145.861L114.47 145.798C114.804 145.762 115.12 145.699 115.166 145.663C115.22 145.627 115.663 145.546 116.16 145.482C116.656 145.419 117.109 145.328 117.154 145.293C117.208 145.256 117.777 145.156 118.419 145.076C119.069 144.984 119.639 144.886 119.684 144.85C119.738 144.813 120.036 144.75 120.361 144.723C120.786 144.672 121.208 144.603 121.627 144.516C122.593 144.316 124.283 144.054 124.364 144.1C124.4 144.117 124.427 146.576 124.427 149.557ZM154.383 154.111C155.647 154.183 157.076 154.346 157.183 154.427C157.237 154.463 157.454 154.527 157.681 154.554C158.196 154.636 159.452 155.006 160.21 155.313C160.843 155.566 162.253 156.271 162.47 156.452C162.543 156.506 162.704 156.614 162.831 156.669C162.957 156.732 163.356 157.048 163.707 157.356C164.06 157.672 164.386 157.943 164.43 157.96C164.566 158.024 166.174 159.976 166.174 160.084C166.174 160.111 166.256 160.256 166.356 160.391C166.546 160.663 167.35 162.226 167.35 162.326C167.35 162.361 167.422 162.56 167.521 162.768C167.611 162.976 167.72 163.293 167.756 163.464C167.792 163.636 167.856 163.816 167.891 163.87C167.927 163.916 168.009 164.204 168.073 164.503C168.127 164.801 168.199 165.109 168.226 165.181C168.262 165.253 168.343 165.641 168.416 166.039C168.524 166.636 168.551 168.886 168.587 178.843L168.623 190.933H158.765L158.756 189.867C158.747 189.289 158.72 188.449 158.683 188.006L158.629 187.193L158.367 187.554C157.952 188.106 156.587 189.406 156.046 189.768C154.861 190.546 154.546 190.734 154.22 190.843C154.021 190.897 153.759 191.006 153.633 191.077C153.497 191.141 153.163 191.25 152.891 191.304C152.62 191.367 152.35 191.449 152.304 191.484C151.843 191.828 146.15 191.819 145.707 191.476C145.663 191.44 145.337 191.359 144.984 191.296C144.641 191.233 144.234 191.133 144.081 191.06C143.937 190.997 143.548 190.834 143.232 190.707C142.869 190.549 142.513 190.375 142.166 190.183C141.926 190.035 141.682 189.894 141.433 189.759C141.054 189.551 140.927 189.433 139.897 188.403C138.84 187.346 138.704 187.202 138.704 187.103C138.704 187.066 138.587 186.867 138.452 186.66C138.307 186.452 138.1 186.073 137.99 185.828C137.883 185.576 137.737 185.277 137.674 185.15C137.603 185.024 137.503 184.699 137.44 184.427C137.377 184.156 137.296 183.886 137.259 183.84C137.16 183.714 136.987 182.43 136.987 181.87C136.987 181.609 136.943 181.346 136.889 181.293C136.78 181.183 136.807 180.823 137.087 178.644C137.141 178.22 137.223 177.831 137.259 177.786C137.296 177.732 137.376 177.497 137.43 177.253C137.548 176.783 137.793 176.169 138.046 175.707C138.127 175.554 138.235 175.346 138.289 175.237C138.343 175.12 138.416 175.03 138.46 175.03C138.497 175.03 138.524 174.976 138.524 174.913C138.524 174.813 139.518 173.521 139.69 173.404C139.726 173.377 139.789 173.287 139.816 173.196C139.852 173.096 139.96 173.006 140.06 172.979C140.16 172.952 140.241 172.897 140.241 172.861C140.241 172.771 141.759 171.578 142.274 171.28C142.644 171.054 143.476 170.63 144.687 170.051C144.859 169.961 146.548 169.419 147.289 169.211C147.56 169.13 148.093 169.021 148.464 168.967C148.834 168.904 149.187 168.831 149.232 168.796C149.286 168.759 149.828 168.677 150.452 168.623C151.076 168.569 151.843 168.479 152.169 168.433C153.452 168.244 157.96 168.28 158.44 168.479C158.603 168.551 158.611 168.515 158.548 167.747C158.512 167.304 158.449 166.924 158.413 166.897C158.367 166.87 158.313 166.699 158.277 166.518C158.214 166.183 157.87 165.452 157.546 164.954C157.337 164.639 156.46 163.734 156.361 163.734C156.326 163.734 156.172 163.644 156.018 163.527C155.62 163.237 154.979 162.949 154.59 162.877C154.4 162.84 154.247 162.777 154.247 162.741C154.247 162.343 148.41 162.28 146.657 162.669C146.431 162.714 145.907 162.813 145.482 162.886C145.057 162.957 144.633 163.057 144.533 163.103C144.433 163.147 144.109 163.229 143.81 163.283C143.512 163.337 143.187 163.419 143.087 163.464C142.987 163.509 142.627 163.609 142.283 163.69C141.94 163.771 141.614 163.861 141.56 163.906C141.506 163.943 141.263 164.033 141.009 164.096C140.766 164.16 140.513 164.25 140.467 164.286C140.413 164.323 140.169 164.403 139.924 164.467C139.672 164.521 139.319 164.647 139.139 164.737C138.949 164.837 138.777 164.91 138.75 164.91C138.723 164.91 138.704 163.021 138.704 160.717C138.704 157.454 138.732 156.506 138.823 156.433C138.886 156.379 139.139 156.289 139.383 156.226C139.636 156.172 139.88 156.09 139.924 156.054C139.979 156.018 140.277 155.91 140.603 155.828C140.927 155.737 141.234 155.639 141.28 155.603C141.334 155.557 141.614 155.484 141.904 155.422C142.202 155.359 142.51 155.277 142.581 155.232C142.663 155.196 143.033 155.096 143.404 155.016C143.691 154.96 143.978 154.896 144.262 154.826C144.361 154.798 144.867 154.717 145.391 154.644C145.916 154.573 146.467 154.473 146.611 154.427C147.136 154.265 151.87 153.967 152.937 154.03C153.234 154.048 153.886 154.084 154.383 154.111V154.111ZM104.548 172.952V190.933H93.9762V154.97H104.548V172.952ZM184.427 166.174C184.427 176.873 184.473 178.943 184.69 179.232C184.734 179.277 184.789 179.457 184.826 179.63C184.952 180.307 185.539 181.293 186.207 181.961C186.56 182.323 186.957 182.639 187.084 182.674C187.22 182.702 187.319 182.756 187.319 182.793C187.319 182.828 187.636 182.954 188.024 183.081C188.603 183.262 188.91 183.298 189.813 183.298C190.446 183.298 190.997 183.253 191.123 183.199C191.24 183.136 191.521 183.046 191.747 182.982C191.973 182.919 192.38 182.729 192.65 182.548C193.156 182.223 194.096 181.356 194.096 181.21C194.096 181.166 194.223 180.967 194.367 180.777C194.521 180.578 194.639 180.38 194.639 180.326C194.639 180.271 194.72 180.081 194.81 179.9C194.91 179.72 195.018 179.413 195.054 179.223C195.081 179.024 195.144 178.826 195.19 178.78C195.416 178.491 195.452 176.666 195.452 166.066V154.97H206.024V190.934H201.018C197.106 190.934 195.985 190.907 195.931 190.816C195.894 190.762 195.85 189.904 195.831 188.919C195.813 187.943 195.768 187.139 195.733 187.139C195.697 187.139 195.587 187.247 195.48 187.383C194.973 188.07 194.178 188.847 192.931 189.877C192.75 190.021 192.38 190.22 191.567 190.617C191.196 190.798 190.79 191.006 190.663 191.069C190.537 191.133 190.193 191.232 189.894 191.296C189.597 191.359 189.334 191.44 189.307 191.476C189.217 191.611 187.618 191.747 186.037 191.747C184.483 191.747 183.217 191.639 182.847 191.484C182.747 191.44 182.404 191.331 182.078 191.25C181.753 191.169 181.455 191.06 181.401 191.024C181.356 190.987 181.139 190.897 180.931 190.834C180.714 190.78 180.543 190.699 180.543 190.663C180.543 190.627 180.38 190.546 180.181 190.482C179.983 190.419 179.82 190.337 179.82 190.301C179.82 190.266 179.72 190.193 179.603 190.139C178.826 189.786 177.064 188.133 176.323 187.066C175.87 186.416 175.174 185.114 175.03 184.636C174.976 184.446 174.868 184.166 174.804 184.021C174.741 183.867 174.633 183.543 174.578 183.298C174.524 183.046 174.443 182.783 174.397 182.693C174.353 182.611 174.271 182.187 174.217 181.744C174.163 181.31 174.064 180.867 174.01 180.768C173.928 180.633 173.891 177.406 173.874 167.774L173.847 154.97H184.428L184.427 166.174Z" fill="white"/>
<path d="M153.207 174.949C152.766 174.994 152.313 175.066 152.214 175.111C152.114 175.166 151.789 175.247 151.491 175.31C151.202 175.364 150.813 175.473 150.633 175.554C149.277 176.141 148.617 176.53 148.166 177C147.732 177.452 147.298 178.293 147.226 178.816C147.207 178.997 147.144 179.232 147.09 179.331C146.991 179.539 147.027 180.181 147.19 181.021C147.37 181.933 148.093 183.046 148.734 183.38C149.873 183.967 150.09 184.057 150.723 184.157C151.861 184.328 154.03 184.229 154.5 183.976C154.581 183.931 154.916 183.777 155.241 183.633C155.566 183.479 155.991 183.234 156.19 183.081C156.389 182.927 156.614 182.747 156.696 182.683C157.21 182.296 158.16 180.723 158.286 180.073C158.313 179.91 158.386 179.72 158.44 179.647C158.503 179.566 158.548 178.734 158.566 177.244L158.602 174.967L158.114 174.913C157.454 174.831 154.202 174.859 153.207 174.949Z" fill="white"/>
</svg>
