<svg width="300" height="300" viewBox="0 0 300 300" fill="none" xmlns="http://www.w3.org/2000/svg">
<rect width="300" height="300" fill="white"/>
<g clip-path="url(#clip0_16_86)">
<path d="M174.54 110.429H125.474V190.556H174.54V110.429Z" fill="#FF5F00"/>
<path d="M130.528 150.5C130.522 142.785 132.271 135.169 135.643 128.229C139.016 121.289 143.923 115.207 149.993 110.444C142.475 104.536 133.446 100.862 123.938 99.8426C114.431 98.8229 104.828 100.498 96.2274 104.677C87.627 108.856 80.3759 115.37 75.303 123.474C70.23 131.578 67.5398 140.946 67.5398 150.507C67.5398 160.068 70.23 169.436 75.303 177.54C80.3759 185.644 87.627 192.158 96.2274 196.337C104.828 200.516 114.431 202.191 123.938 201.172C133.446 200.152 142.475 196.478 149.993 190.571C143.921 185.805 139.013 179.721 135.64 172.779C132.268 165.837 130.52 158.218 130.528 150.5Z" fill="#EB001B"/>
<path d="M227.584 182.078V180.436H228.292V180.096H226.607V180.436H227.272V182.078H227.584ZM230.854 182.078V180.096H230.344L229.75 181.512L229.155 180.096H228.645V182.078H229.014V180.578L229.566 181.866H229.948L230.5 180.578V182.078H230.854Z" fill="#F79E1B"/>
<path d="M232.454 150.5C232.453 160.061 229.762 169.43 224.689 177.535C219.615 185.639 212.363 192.153 203.761 196.331C195.16 200.509 185.556 202.184 176.048 201.162C166.54 200.141 157.511 196.466 149.993 190.556C156.061 185.788 160.966 179.705 164.339 172.765C167.713 165.825 169.465 158.209 169.465 150.493C169.465 142.777 167.713 135.161 164.339 128.221C160.966 121.281 156.061 115.197 149.993 110.429C157.511 104.52 166.54 100.845 176.048 99.8234C185.556 98.8022 195.16 100.476 203.761 104.655C212.363 108.833 219.615 115.347 224.689 123.451C229.762 131.556 232.453 140.924 232.454 150.486V150.5Z" fill="#F79E1B"/>
</g>
<defs>
<clipPath id="clip0_16_86">
<rect width="186" height="123" fill="white" transform="translate(57 89)"/>
</clipPath>
</defs>
</svg>
