<svg width="300" height="300" viewBox="0 0 300 300" fill="none" xmlns="http://www.w3.org/2000/svg">
<rect width="300" height="300" fill="white"/>
<path d="M149.524 99.9584C112.679 100.328 83.0237 121.75 83.2849 147.81C83.5461 173.868 113.645 196.737 150.492 196.367C187.338 195.997 216.971 172.528 216.71 146.471C216.448 120.414 186.369 99.5885 149.524 99.9584Z" fill="#00BCFF"/>
<path d="M128.144 132.774C128.111 132.846 127.467 133.598 127.896 134.193C128.941 135.64 132.136 136.443 135.35 135.611C137.265 135.116 139.702 132.928 142.063 130.815C144.315 128.509 146.905 126.643 149.724 125.299C151.527 124.548 153.503 124.472 155.35 125.08C157.228 125.829 158.975 126.931 160.514 128.338C165.023 132.01 183.181 149.185 186.32 152.153C195.825 147.667 205.677 144.134 215.757 141.597C214.353 132.702 209.421 124.259 201.92 117.661C191.604 122.577 178.124 125.593 165.674 119.033C161.445 116.969 156.884 115.871 152.265 115.805C142.443 116.156 138.234 120.899 133.781 125.92L128.144 132.774Z" fill="white"/>
<path d="M185.608 154.048C185.394 153.841 164.257 133.799 159.474 129.906C157.805 128.298 155.756 127.249 153.568 126.882C152.628 126.809 151.682 126.919 150.777 127.207C147.987 128.401 145.414 130.134 143.175 132.325C140.547 134.687 138.069 136.911 135.753 137.509C132.954 138.174 130.03 137.719 127.503 136.224C126.91 135.832 126.431 135.263 126.119 134.581C125.946 134.06 125.917 133.492 126.036 132.952C126.155 132.412 126.417 131.925 126.788 131.551L132.497 124.584C133.162 123.837 133.83 123.088 134.516 122.352C132.738 122.666 130.982 123.121 129.263 123.716C127.284 124.465 125.221 124.912 123.132 125.044C121.023 124.829 118.926 124.489 116.85 124.023C110.659 122.483 104.608 120.313 98.7751 117.542C90.6294 124.384 85.364 132.737 83.8701 142.062C85.0536 142.395 88.154 143.143 88.9552 143.331C107.589 147.713 113.425 152.361 114.485 153.334C115.094 152.56 115.856 151.948 116.711 151.546C117.566 151.144 118.493 150.961 119.423 151.012C120.351 151.064 121.258 151.347 122.075 151.841C122.891 152.335 123.596 153.027 124.136 153.866C125.379 152.732 126.937 152.108 128.549 152.098C129.455 152.098 130.355 152.264 131.213 152.586C132.044 152.871 132.811 153.348 133.462 153.986C134.114 154.624 134.635 155.408 134.991 156.286C135.8 155.871 136.68 155.655 137.572 155.652C138.638 155.656 139.693 155.902 140.671 156.375C142.031 157.063 143.141 158.24 143.819 159.714C144.497 161.189 144.702 162.872 144.401 164.49C144.647 164.458 144.894 164.442 145.141 164.44C147.095 164.423 148.976 165.265 150.373 166.778C151.769 168.292 152.567 170.355 152.591 172.515C152.604 173.858 152.315 175.183 151.748 176.37C153.685 177.65 155.914 178.286 158.167 178.201C158.729 178.195 159.283 178.062 159.796 177.808C160.309 177.555 160.768 177.187 161.146 176.727C161.329 176.437 161.518 176.097 161.336 175.855L156.027 169.468C156.027 169.468 155.155 168.574 155.436 168.223C155.727 167.862 156.266 168.371 156.648 168.716C159.342 171.153 162.637 174.84 162.637 174.84C162.694 174.879 162.913 175.349 164.12 175.576C164.842 175.707 165.58 175.676 166.291 175.486C167.001 175.295 167.669 174.948 168.255 174.465C168.586 174.152 168.888 173.803 169.157 173.424C169.139 173.444 169.119 173.462 169.097 173.477C169.458 172.911 169.636 172.227 169.602 171.535C169.568 170.842 169.323 170.182 168.908 169.662L162.709 162.122C162.709 162.122 161.824 161.234 162.121 160.874C162.383 160.558 162.95 161.025 163.339 161.373C165.294 163.146 168.064 166.155 170.717 168.974C171.599 169.62 172.642 169.939 173.698 169.889C174.754 169.838 175.766 169.418 176.591 168.69C177.268 168.267 177.826 167.645 178.202 166.892C178.578 166.14 178.758 165.286 178.722 164.426C178.578 163.352 178.113 162.362 177.4 161.614L168.946 152.4C168.946 152.4 168.052 151.575 168.362 151.151C168.615 150.793 169.189 151.298 169.571 151.642C172.259 154.08 179.544 161.319 179.544 161.319C180.4 161.917 181.397 162.219 182.408 162.187C183.418 162.154 184.397 161.789 185.218 161.138C185.746 160.789 186.188 160.302 186.507 159.721C186.826 159.139 187.011 158.481 187.047 157.801C187.065 157.098 186.946 156.4 186.697 155.752C186.449 155.105 186.077 154.524 185.608 154.048Z" fill="white"/>
<path d="M145.159 166.238C144.178 166.401 143.211 166.648 142.265 166.978C142.161 166.906 142.338 166.327 142.455 165.994C142.578 165.664 144.229 159.964 140.046 158.035C139.108 157.491 138.038 157.296 136.994 157.479C135.95 157.662 134.988 158.213 134.251 159.049C134.079 159.252 133.999 159.236 133.978 158.982C133.942 157.922 133.607 156.899 133.02 156.059C132.432 155.218 131.622 154.601 130.702 154.295C129.4 153.866 128.008 153.914 126.733 154.431C125.46 154.947 124.372 155.906 123.631 157.164C123.486 156.044 123.004 155.011 122.263 154.232C121.521 153.452 120.565 152.97 119.546 152.865C118.528 152.76 117.509 153.038 116.652 153.653C115.796 154.267 115.153 155.184 114.826 156.254C114.5 157.325 114.509 158.486 114.854 159.551C115.198 160.616 115.858 161.522 116.724 162.123C117.591 162.724 118.615 162.984 119.632 162.863C120.647 162.741 121.596 162.244 122.324 161.452C122.35 161.478 122.361 161.525 122.349 161.621C122.057 163.18 122.282 164.806 122.984 166.199C123.687 167.592 124.819 168.66 126.173 169.208C126.905 169.511 127.696 169.598 128.466 169.458C129.236 169.319 129.96 168.958 130.565 168.413C130.924 168.128 130.983 168.246 130.936 168.623C130.793 169.79 131.015 172.283 134.194 173.668C134.982 174.085 135.87 174.21 136.727 174.025C137.584 173.84 138.364 173.355 138.95 172.641C139.353 172.229 139.465 172.294 139.493 172.927C139.556 174.168 139.947 175.362 140.618 176.36C141.289 177.358 142.21 178.117 143.267 178.543C144.324 178.968 145.469 179.042 146.562 178.754C147.655 178.466 148.647 177.83 149.414 176.924C150.182 176.018 150.691 174.883 150.88 173.658C151.068 172.434 150.927 171.174 150.474 170.037C150.02 168.899 149.275 167.932 148.33 167.257C147.386 166.582 146.284 166.228 145.159 166.238H145.159Z" fill="white"/>
<path d="M149.493 98.0048C111.945 98.3817 81.7302 120.766 82.0018 147.846C82.0088 148.546 82.0206 150.479 82.023 150.725C82.3112 179.457 109.148 202.458 150.528 202.043C192.158 201.625 218.286 178.098 217.998 149.365L217.969 146.482C217.697 119.401 187.038 97.628 149.493 98.0048ZM214.849 141.065C205.077 143.56 195.548 147.093 186.394 151.615C179.881 145.458 164.835 131.28 160.765 127.973C159.186 126.534 157.394 125.406 155.469 124.64C154.63 124.357 153.758 124.216 152.882 124.22C151.767 124.248 150.662 124.465 149.608 124.864C146.786 126.194 144.193 128.048 141.94 130.347L141.811 130.461C139.49 132.543 137.091 134.697 135.264 135.166C134.465 135.374 133.646 135.483 132.825 135.493C132.001 135.577 131.171 135.48 130.381 135.208C129.591 134.936 128.857 134.494 128.222 133.907C128.106 133.747 128.179 133.486 128.44 133.109L128.474 133.058L134.082 126.242C138.476 121.285 142.627 116.603 152.285 116.261C152.446 116.255 152.608 116.25 152.767 116.248C157.157 116.402 161.481 117.488 165.502 119.447C170.909 122.364 176.846 123.875 182.857 123.862C189.432 123.671 195.886 121.895 201.769 118.659C208.726 124.998 213.375 132.67 214.849 141.065ZM149.534 100.908C169.464 100.708 187.361 106.844 199.45 116.67C194.245 119.364 188.592 120.841 182.842 121.009C177.216 121.015 171.661 119.596 166.603 116.862C162.232 114.711 157.522 113.531 152.743 113.39C152.561 113.392 152.378 113.397 152.198 113.403C146.442 113.368 140.87 115.619 136.498 119.748C133.828 119.929 131.19 120.489 128.649 121.414C126.864 122.092 125.005 122.506 123.12 122.643C122.41 122.65 121.13 122.591 121.015 122.586C114.221 121.335 107.551 119.367 101.094 116.71C112.965 107.189 130.241 101.101 149.534 100.908ZM98.7612 118.696C107.091 122.362 117.18 125.156 120.364 125.352C121.251 125.408 122.198 125.509 123.143 125.502C125.27 125.367 127.37 124.913 129.385 124.155C130.586 123.769 131.91 123.349 133.304 123.04C132.934 123.447 132.567 123.861 132.197 124.279L126.502 131.231C126.068 131.664 125.764 132.234 125.629 132.864C125.495 133.494 125.536 134.154 125.748 134.758C126.091 135.522 126.623 136.161 127.282 136.603C129.158 137.748 131.277 138.32 133.418 138.257C134.238 138.255 135.056 138.152 135.855 137.95C138.266 137.328 140.779 135.069 143.439 132.682C145.641 130.537 148.164 128.832 150.896 127.641C151.577 127.434 152.278 127.32 152.985 127.303C153.166 127.3 153.347 127.31 153.527 127.334C155.642 127.695 157.621 128.714 159.234 130.271C164.006 134.155 185.145 154.194 185.354 154.392C185.773 154.823 186.106 155.349 186.328 155.933C186.551 156.517 186.659 157.147 186.644 157.781C186.612 158.388 186.446 158.977 186.159 159.496C185.872 160.014 185.474 160.446 185 160.755C184.192 161.364 183.241 161.702 182.263 161.729C181.403 161.738 180.559 161.477 179.827 160.976C179.751 160.907 172.504 153.706 169.838 151.289C169.504 150.906 169.066 150.654 168.592 150.57C168.487 150.568 168.383 150.594 168.288 150.645C168.193 150.695 168.11 150.769 168.045 150.861C167.636 151.43 168.109 152.21 168.663 152.719L177.136 161.951C177.767 162.618 178.184 163.495 178.32 164.449C178.349 165.229 178.183 166.003 177.838 166.684C177.494 167.366 176.985 167.928 176.369 168.309C175.505 168.996 174.474 169.384 173.409 169.425C172.558 169.433 171.723 169.162 171.01 168.646L169.795 167.349C167.574 164.982 165.281 162.532 163.605 161.018C163.266 160.64 162.825 160.392 162.349 160.314C162.249 160.313 162.152 160.335 162.061 160.379C161.971 160.423 161.889 160.487 161.823 160.569C161.637 160.803 161.508 161.222 161.99 161.911C162.119 162.096 162.263 162.269 162.418 162.428L168.607 169.96C168.965 170.398 169.176 170.958 169.208 171.547C169.239 172.136 169.088 172.718 168.779 173.199L168.565 173.503C168.388 173.72 168.2 173.924 168.001 174.116C167.143 174.827 166.097 175.205 165.024 175.193C164.747 175.197 164.47 175.174 164.197 175.124C163.75 175.089 163.326 174.896 162.986 174.575L162.909 174.49C162.572 174.111 159.455 170.663 156.882 168.335C156.562 167.967 156.141 167.724 155.685 167.644C155.581 167.644 155.478 167.669 155.383 167.717C155.288 167.765 155.204 167.834 155.135 167.922C154.638 168.538 155.405 169.443 155.729 169.775L161.006 176.082C160.962 176.223 160.898 176.356 160.815 176.472C160.63 176.76 160.006 177.466 158.116 177.747C157.887 177.782 157.656 177.8 157.425 177.8C155.629 177.691 153.878 177.136 152.301 176.177C152.846 174.861 153.082 173.413 152.986 171.968C152.889 170.524 152.464 169.128 151.751 167.911C151.037 166.695 150.057 165.697 148.903 165.01C147.747 164.323 146.455 163.969 145.145 163.982C145.053 163.983 144.955 163.987 144.864 163.991C145.07 162.352 144.789 160.682 144.063 159.232C143.336 157.782 142.205 156.632 140.837 155.955C139.808 155.457 138.698 155.199 137.576 155.194C136.761 155.199 135.954 155.369 135.196 155.696C134.386 154.003 133.004 152.731 131.351 152.159C130.45 151.817 129.505 151.643 128.553 151.644C126.992 151.65 125.475 152.205 124.22 153.228C123.637 152.435 122.909 151.787 122.084 151.326C121.259 150.865 120.356 150.602 119.433 150.554C118.511 150.506 117.59 150.674 116.731 151.046C115.872 151.42 115.094 151.989 114.45 152.718C112.812 151.362 106.327 146.904 89.0454 142.75C88.2204 142.553 86.3451 141.98 85.1642 141.61C86.6957 133.04 91.5335 125.178 98.7612 118.696ZM131.233 167.981L131.045 167.799L130.856 167.801C130.663 167.818 130.479 167.903 130.332 168.042C129.597 168.679 128.699 169.043 127.765 169.081C127.273 169.082 126.785 168.982 126.324 168.787C125.054 168.278 123.993 167.276 123.339 165.969C122.685 164.661 122.482 163.137 122.767 161.678C122.787 161.573 122.78 161.462 122.748 161.36C122.717 161.258 122.661 161.166 122.587 161.095L122.302 160.843L122.041 161.124C121.281 161.956 120.257 162.427 119.187 162.438C118.388 162.449 117.603 162.206 116.926 161.736C116.248 161.267 115.707 160.592 115.368 159.791C115.029 158.991 114.905 158.1 115.013 157.226C115.121 156.351 115.454 155.53 115.973 154.86C116.493 154.192 117.177 153.703 117.943 153.453C118.709 153.204 119.524 153.204 120.29 153.454C121.057 153.703 121.742 154.193 122.264 154.863C122.786 155.532 123.122 156.354 123.232 157.228L123.387 158.458L123.989 157.41C124.667 156.22 125.682 155.312 126.877 154.828C128.072 154.344 129.378 154.312 130.593 154.735C131.433 155.017 132.172 155.582 132.706 156.351C133.24 157.121 133.544 158.055 133.573 159.024C133.624 159.621 134.009 159.646 134.084 159.645C134.177 159.637 134.267 159.608 134.349 159.559C134.431 159.51 134.503 159.444 134.561 159.362C134.95 158.903 135.421 158.538 135.944 158.287C136.466 158.037 137.03 157.907 137.6 157.907C138.39 157.918 139.17 158.104 139.895 158.454C143.819 160.268 142.103 165.773 142.083 165.83C141.755 166.742 141.745 167.144 142.063 167.373L142.219 167.451L142.333 167.45C142.593 167.415 142.847 167.339 143.087 167.224C143.75 166.926 144.451 166.748 145.165 166.694H145.167C145.867 166.687 146.562 166.833 147.211 167.123C147.86 167.412 148.452 167.841 148.952 168.383C149.452 168.925 149.851 169.57 150.126 170.283C150.4 170.995 150.546 171.759 150.553 172.533C150.561 173.307 150.431 174.074 150.17 174.791C149.909 175.508 149.523 176.161 149.033 176.713C148.544 177.265 147.961 177.705 147.317 178.007C146.674 178.31 145.982 178.469 145.283 178.475C143.91 178.498 142.582 177.93 141.58 176.892C140.577 175.853 139.979 174.425 139.911 172.909C139.9 172.639 139.867 171.923 139.317 171.928C139.067 171.963 138.839 172.099 138.675 172.311C138.003 173.118 137.069 173.596 136.076 173.641C135.484 173.634 134.897 173.499 134.35 173.246C131.303 171.914 131.238 169.611 131.351 168.684C131.38 168.565 131.384 168.439 131.364 168.318C131.343 168.196 131.299 168.081 131.233 167.981ZM150.461 193.372C114.358 193.735 84.884 173.328 84.628 147.796C84.6232 146.775 84.6655 145.755 84.7549 144.739C85.0438 144.813 87.9185 145.541 88.5137 145.683C106.166 149.831 112.029 154.268 113.021 155.109C112.614 156.221 112.462 157.428 112.579 158.623C112.695 159.817 113.077 160.961 113.689 161.955C114.301 162.948 115.126 163.759 116.089 164.316C117.053 164.873 118.125 165.159 119.211 165.148C119.617 165.145 120.022 165.1 120.42 165.012C120.695 166.455 121.304 167.795 122.188 168.901C123.071 170.007 124.199 170.84 125.461 171.32C126.214 171.637 127.012 171.799 127.817 171.797C128.323 171.795 128.827 171.721 129.317 171.577C129.936 172.978 130.892 174.163 132.08 175.003C133.269 175.843 134.643 176.304 136.052 176.335C136.739 176.328 137.42 176.187 138.062 175.918C138.563 177.234 139.354 178.392 140.361 179.286C141.368 180.181 142.561 180.784 143.831 181.042C145.101 181.3 146.409 181.203 147.635 180.762C148.862 180.321 149.969 179.548 150.857 178.513C152.878 179.787 155.144 180.51 157.467 180.622C157.8 180.618 158.132 180.591 158.463 180.542C159.319 180.505 160.159 180.266 160.925 179.842C161.69 179.417 162.365 178.817 162.905 178.081C163.006 177.923 163.097 177.757 163.175 177.584C163.862 177.808 164.573 177.923 165.289 177.927C166.835 177.878 168.323 177.272 169.528 176.202C170.802 175.258 171.689 173.799 171.999 172.137C172.001 172.119 172.003 172.101 172.004 172.082C172.474 172.183 172.952 172.231 173.431 172.226C174.993 172.189 176.509 171.64 177.788 170.649C178.762 170.012 179.561 169.094 180.102 167.996C180.643 166.897 180.906 165.656 180.863 164.405C181.339 164.509 181.823 164.56 182.309 164.556C183.767 164.524 185.184 164.025 186.39 163.121C187.191 162.568 187.863 161.813 188.349 160.917C188.836 160.021 189.123 159.011 189.189 157.968C189.271 156.516 188.94 155.072 188.243 153.837C196.986 149.786 206.024 146.555 215.26 144.179C215.321 144.943 215.358 145.712 215.366 146.486C215.622 172.017 186.564 193.01 150.462 193.372L150.461 193.372Z" fill="#0A0080"/>
</svg>
