<svg width="300" height="300" viewBox="0 0 300 300" fill="none" xmlns="http://www.w3.org/2000/svg">
<rect width="300" height="300" fill="#820AD1"/>
<g clip-path="url(#clip0_1_49)">
<path d="M106.412 119.25C110.726 114.673 116.449 112 123.173 112C136.27 112 144.954 121.655 146.616 136.12C147.154 140.817 147.149 147.44 147.144 155.11C147.143 155.897 147.143 156.694 147.143 157.502V186.237H129.131V164.984C129.131 164.984 129.094 146.794 128.984 143.394C128.501 128.588 119.819 119.285 106.41 119.275C102.365 123.59 100.197 128.867 99.8774 136.934C99.8335 138.06 99.8445 142.048 99.8591 147.305C99.8666 150.029 99.8751 153.093 99.8774 156.276C99.8907 170.129 99.8774 186.24 99.8774 186.24H81.8657V153.532C81.8657 152.411 81.8454 151.281 81.8251 150.146C81.7843 147.863 81.7431 145.563 81.8657 143.285C82.0692 139.488 82.7197 135.756 84.4745 132.288C88.4912 124.345 96.7214 119.23 105.495 119.23C105.802 119.23 106.109 119.237 106.412 119.25Z" fill="white"/>
<path d="M218.134 156.715C218.257 154.437 218.216 152.137 218.175 149.854C218.155 148.719 218.134 147.589 218.134 146.468V113.76H200.123C200.123 113.76 200.109 129.871 200.123 143.724C200.125 146.907 200.133 149.971 200.141 152.694C200.155 157.951 200.166 161.94 200.123 163.065C199.803 171.133 197.635 176.41 193.59 180.725C180.181 180.715 171.5 171.412 171.016 156.606C170.906 153.206 170.859 144.77 170.859 134.999V113.746L152.861 113.763V142.498C152.861 143.306 152.86 144.103 152.86 144.89C152.854 152.56 152.85 159.183 153.388 163.88C155.046 178.345 163.73 188 176.828 188C183.551 188 189.274 185.327 193.588 180.75C193.892 180.763 194.198 180.77 194.505 180.77C203.279 180.77 211.509 175.655 215.526 167.712C217.28 164.244 217.931 160.512 218.134 156.715Z" fill="white"/>
</g>
<defs>
<clipPath id="clip0_1_49">
<rect width="138" height="76" fill="white" transform="translate(81 112)"/>
</clipPath>
</defs>
</svg>
