<svg width="300" height="300" viewBox="0 0 300 300" fill="none" xmlns="http://www.w3.org/2000/svg">
<rect width="300" height="300" fill="#EA1D25"/>
<path fill-rule="evenodd" clip-rule="evenodd" d="M224.994 180.232C224.994 202.788 191.43 220.926 149.997 220.926C108.564 220.926 75 202.788 75 180.232C75 164.161 92.4456 150.119 117.448 143.634C117.448 149.806 118.832 155.922 121.913 161.402L145.579 202.096C147.285 205.177 148.613 208.581 149.305 212.042L150.367 210.335C156.169 200.389 156.169 187.732 150.367 177.833L131.49 145.331C125.687 135.063 125.687 122.775 131.49 112.829L132.551 111.132C133.244 114.583 134.571 117.987 136.325 121.078L147.285 140.23L164.409 169.964C166.115 173.045 167.5 176.449 168.135 179.853L169.197 178.155C174.999 168.257 174.999 155.599 169.197 145.71L150.367 113.209C144.517 103.253 144.517 90.6525 150.367 80.7066L151.381 79C152.073 82.4038 153.458 85.8645 155.155 88.8985L178.45 129.592C181.162 134.058 182.546 139.159 182.869 144.326C208.241 150.811 225.364 164.853 224.994 180.232Z" fill="white"/>
</svg>
