<svg width="300" height="300" viewBox="0 0 300 300" fill="none" xmlns="http://www.w3.org/2000/svg">
<rect width="300" height="300" fill="white"/>
<g clip-path="url(#clip0_16_101)">
<path d="M138.133 177.192H123.714L132.733 122.983H147.151L138.133 177.192Z" fill="#00579F"/>
<path d="M190.404 124.308C187.56 123.211 183.049 122 177.471 122C163.232 122 153.205 129.381 153.143 139.934C153.025 147.72 160.322 152.045 165.78 154.641C171.359 157.294 173.255 159.025 173.255 161.39C173.198 165.022 168.747 166.696 164.596 166.696C158.839 166.696 155.755 165.833 151.067 163.812L149.168 162.946L147.15 175.115C150.532 176.613 156.763 177.942 163.232 178C178.362 178 188.211 170.733 188.328 159.487C188.386 153.316 184.532 148.587 176.225 144.723C171.181 142.243 168.093 140.571 168.093 138.033C168.152 135.726 170.705 133.362 176.398 133.362C181.086 133.247 184.53 134.342 187.139 135.438L188.443 136.014L190.404 124.308Z" fill="#00579F"/>
<path d="M209.569 157.988C210.756 154.873 215.325 142.82 215.325 142.82C215.266 142.936 216.511 139.648 217.223 137.63L218.23 142.301C218.23 142.301 220.961 155.277 221.554 157.988C219.3 157.988 212.417 157.988 209.569 157.988ZM227.367 122.983H216.214C212.775 122.983 210.162 123.962 208.678 127.48L187.26 177.191H202.389C202.389 177.191 204.88 170.501 205.416 169.06C207.075 169.06 221.794 169.06 223.929 169.06C224.343 170.963 225.649 177.191 225.649 177.191H239L227.367 122.983Z" fill="#00579F"/>
<path d="M111.67 122.983L97.5492 159.948L96.0061 152.451C93.3954 143.801 85.2076 134.402 76.0705 129.729L89.005 177.135H104.253L126.918 122.983H111.67Z" fill="#00579F"/>
<path d="M84.4365 122.983H61.2373L61 124.078C79.0968 128.576 91.0819 139.42 96.0061 152.454L90.9629 127.539C90.1326 124.077 87.581 123.097 84.4365 122.983Z" fill="#FAA61A"/>
</g>
<defs>
<clipPath id="clip0_16_101">
<rect width="178" height="56" fill="white" transform="translate(61 122)"/>
</clipPath>
</defs>
</svg>
