<svg width="300" height="300" viewBox="0 0 300 300" fill="none" xmlns="http://www.w3.org/2000/svg">
<rect width="300" height="300" fill="#1F1F1F"/>
<path d="M112.551 153.043H218V188.258C218 200.922 207.713 211.188 195.023 211.188H112.551V153.043Z" fill="#1F1F1F"/>
<path d="M180.966 183.157H196.355C202.111 183.157 206.114 180.517 206.114 175.112C206.114 169.707 202.111 167.067 196.355 167.067H180.966V183.157ZM180.966 211.188H201.485C212.37 211.188 218 205.532 218 194.596V183.157H217.625C214.497 192.71 206.364 195.601 196.73 195.601H181.466C181.091 195.601 180.966 195.727 180.966 196.104V211.188ZM152.065 175.112L167.829 190.447V159.776L152.065 175.112ZM98.515 211.188H167.829V207.669C167.829 201.509 169.956 197.99 174.835 196.104V195.727H155.442C154.442 195.727 154.066 195.601 153.316 194.847L143.181 184.288L132.671 194.973C132.171 195.476 131.796 195.727 130.795 195.727H115.155C114.28 195.727 114.28 195.224 114.78 194.722L134.799 175.238L114.405 155.377C113.904 154.874 114.03 154.371 114.905 154.371H130.67C131.545 154.371 131.921 154.497 132.421 155.125L143.431 166.187L153.816 155.125C154.316 154.622 154.692 154.371 155.442 154.371H196.605C206.114 154.371 214.497 157.513 217.625 167.067H218V104.593C218 93.6568 212.37 88 201.485 88H98.515C87.6301 88 82 93.6568 82 104.593V194.722C82 205.532 87.6301 211.188 98.515 211.188Z" fill="white"/>
</svg>
